<?xml version="1.0" encoding="utf-8" ?>
<svg baseProfile="full" height="100%" version="1.1" viewBox="0,0,300,120" width="100%" xmlns="http://www.w3.org/2000/svg" xmlns:ev="http://www.w3.org/2001/xml-events" xmlns:xlink="http://www.w3.org/1999/xlink"><defs /><rect fill="none" height="120" width="300" x="0" y="0" /><path d="M0,0 M46.48507308959961,48.348384857177734 L46.476253509521484,48.39460372924805 L46.44831085205078,48.612152099609375 L46.40387725830078,49.13320541381836 L46.35525131225586,50.04532241821289 L46.307151794433594,51.348052978515625 L46.268165588378906,53.04188537597656 L46.22928237915039,55.080562591552734 L46.174049377441406,57.424407958984375 L46.086265563964844,60.032875061035156 L45.94805145263672,62.82697296142578 L45.73339080810547,65.66883087158203 L45.46365737915039,68.39966583251953 L45.169334411621094,70.81436157226562 L44.88980484008789,72.74887084960938 L44.684814453125,74.02001953125 L44.570518493652344,74.66926574707031 M43.15265655517578,49.52263641357422 L43.15992736816406,48.849456787109375 L43.364776611328125,47.87662124633789 L43.93407440185547,46.808998107910156 L44.996360778808594,45.95024871826172 L46.55415344238281,45.35230255126953 L48.52301025390625,45.03694152832031 L50.772945404052734,45.0 L53.164241790771484,45.28071975708008 L55.53049850463867,45.88250732421875 L57.68207931518555,46.763763427734375 L59.42509078979492,47.8818244934082 L60.579219818115234,49.16783142089844 L61.028785705566406,50.56366729736328 L60.738765716552734,52.007118225097656 L59.753639221191406,53.44230651855469 L58.17862319946289,54.809635162353516 L56.18095779418945,56.05461883544922 L53.95632553100586,57.10386276245117 L51.723106384277344,57.90047836303711 L49.719696044921875,58.398399353027344 L48.14390182495117,58.59778594970703 L47.11005401611328,58.554710388183594 L46.58644104003906,58.4085693359375 L46.4185791015625,58.269325256347656 M59.98662185668945,62.89012145996094 L59.9872932434082,62.90581512451172 L59.98191833496094,62.984806060791016 L59.97639465332031,63.19047927856445 L59.969913482666016,63.59346389770508 L59.94487762451172,64.23994445800781 L59.90011215209961,65.13256072998047 L59.8188362121582,66.23221588134766 L59.67603302001953,67.44393157958984 L59.496498107910156,68.63707733154297 L59.30921936035156,69.68684387207031 L59.146484375,70.49272155761719 L59.07931900024414,70.89632415771484 L59.13338851928711,70.8107681274414 L59.306339263916016,70.24483489990234 L59.51506423950195,69.52481079101562 L59.68124008178711,68.93617248535156 M61.27873229980469,47.60121154785156 L61.30162048339844,47.2010498046875 L61.3399658203125,46.69693374633789 L61.36346435546875,46.25373840332031 L61.38134002685547,46.122188568115234 L61.41814422607422,46.328468322753906 L61.505699157714844,46.82808303833008 L61.61627960205078,47.35721206665039 L61.72201156616211,47.762332916259766 M67.54666900634766,61.70662307739258 L67.58067321777344,61.788394927978516 L67.61827087402344,62.02946472167969 L67.63946533203125,62.51583480834961 L67.6175537109375,63.2999153137207 L67.55267333984375,64.3740463256836 L67.4683609008789,65.68315124511719 L67.37992858886719,67.12564849853516 L67.2956314086914,68.55958557128906 L67.22886657714844,69.83775329589844 L67.16818237304688,70.83570861816406 L67.11054992675781,71.43608093261719 L67.06944274902344,71.57476806640625 L67.059326171875,71.2312240600586 L67.1098861694336,70.4283676147461 L67.26943969726562,69.24134826660156 L67.56855773925781,67.78800201416016 L68.02717590332031,66.1655044555664 L68.66517639160156,64.48169708251953 L69.47346496582031,62.834529876708984 L70.44805908203125,61.327064514160156 L71.5720443725586,60.056907653808594 L72.83894348144531,59.12030792236328 L74.2269515991211,58.57469177246094 L75.70146179199219,58.46453094482422 L77.17854309082031,58.80263137817383 L78.55606079101562,59.57103729248047 L79.72294616699219,60.7166633605957 L80.60617065429688,62.158695220947266 L81.17732238769531,63.78355407714844 L81.46055603027344,65.47913360595703 L81.51878356933594,67.13050842285156 L81.47064971923828,68.60633850097656 L81.44981384277344,69.79429626464844 L81.54530334472656,70.6138916015625 L81.70976257324219,71.06011199951172 L81.86958312988281,71.22743225097656 M88.87931060791016,47.921085357666016 L88.97193145751953,47.323238372802734 L89.09037780761719,46.51932144165039 L89.2114028930664,45.77779006958008 L89.29913330078125,45.44959259033203 L89.3677978515625,45.628074645996094 L89.41377258300781,46.34952163696289 L89.41230773925781,47.592918395996094 L89.32389068603516,49.33857345581055 L89.15050506591797,51.53798294067383 L88.9223403930664,54.078651428222656 L88.68612670898438,56.820960998535156 L88.47061920166016,59.610374450683594 L88.26893615722656,62.29983901977539 L88.05461120605469,64.73541259765625 L87.83248138427734,66.80564880371094 L87.66734313964844,68.38115692138672 L87.62487030029297,69.37786102294922 L87.74803924560547,69.79566192626953 L87.94805145263672,69.83003234863281 L88.1266098022461,69.69889068603516 M95.9563217163086,61.149147033691406 L96.007080078125,60.800811767578125 L96.0272216796875,60.33237838745117 L95.91436004638672,59.89686965942383 L95.54830169677734,59.7053337097168 L94.8521957397461,59.82100296020508 L93.80620574951172,60.25830078125 L92.48177337646484,60.95759963989258 L91.01805877685547,61.862693786621094 L89.5788345336914,62.894805908203125 L88.35115814208984,63.96275329589844 L87.46804809570312,65.00049591064453 L87.03636932373047,65.96421813964844 L87.12776184082031,66.81685638427734 L87.78077697753906,67.52406311035156 L88.97492218017578,68.06088256835938 L90.64454650878906,68.39128875732422 L92.63320922851562,68.50926971435547 L94.76187896728516,68.44963836669922 L96.8483657836914,68.28780364990234 L98.73668670654297,68.05464935302734 L100.30075073242188,67.77677917480469 L101.47943115234375,67.450927734375 L102.21468353271484,67.15493774414062 L102.5688247680664,66.9432373046875 M102.50355529785156,59.59848403930664 L102.58671569824219,59.64275360107422 L102.69002532958984,59.847476959228516 L102.78055572509766,60.32451248168945 L102.81207275390625,61.141868591308594 L102.81098937988281,62.28059768676758 L102.80581665039062,63.6595344543457 L102.82466125488281,65.15415954589844 L102.87133026123047,66.59497833251953 L102.9422607421875,67.83761596679688 L103.00403594970703,68.75946807861328 L103.04808044433594,69.27897644042969 L103.05879211425781,69.35415649414062 L103.04660034179688,68.98606872558594 L103.02444458007812,68.18204498291016 L103.02481842041016,67.02513122558594 L103.06491088867188,65.62887573242188 L103.1674575805664,64.12078857421875 L103.34664154052734,62.61564636230469 L103.63221740722656,61.216495513916016 L104.0651626586914,59.984962463378906 L104.694091796875,58.982852935791016 L105.55957794189453,58.243064880371094 L106.66901397705078,57.76536560058594 L107.97366333007812,57.520606994628906 L109.39271545410156,57.46586990356445 L110.8515853881836,57.544464111328125 L112.26266479492188,57.708709716796875 L113.5673599243164,57.90153884887695 L114.6956558227539,58.06121063232422 L115.5879898071289,58.145469665527344 L116.16914367675781,58.161827087402344 L116.46669006347656,58.13917922973633 M119.28140258789062,62.30595397949219 L119.6341552734375,61.84169006347656 L120.24585723876953,60.9427604675293 L121.07038116455078,59.61660385131836 L121.97246551513672,57.994789123535156 L122.89912414550781,56.172481536865234 L123.80330657958984,54.25669479370117 L124.6605224609375,52.372093200683594 L125.42723846435547,50.631507873535156 L126.07421875,49.17505645751953 L126.57171630859375,48.08314514160156 L126.92047882080078,47.415096282958984 L127.12382507324219,47.197566986083984 L127.18779754638672,47.47819900512695 L127.10616302490234,48.26233673095703 L126.88150787353516,49.548824310302734 L126.51527404785156,51.28081512451172 L126.04270935058594,53.38469696044922 L125.50541687011719,55.753292083740234 L124.97645568847656,58.281158447265625 L124.5196762084961,60.83665466308594 L124.17186737060547,63.27732849121094 L123.94660949707031,65.45077514648438 L123.82681274414062,67.23660278320312 L123.8085708618164,68.52223205566406 L123.90120697021484,69.2632827758789 L124.09867858886719,69.49754333496094 L124.31398010253906,69.4304428100586 L124.48271179199219,69.26500701904297 M132.29397583007812,57.47736358642578 L132.42279052734375,57.129981994628906 L132.58737182617188,56.69671630859375 L132.71566772460938,56.3621940612793 L132.74343872070312,56.37096405029297 L132.66905212402344,56.813926696777344 L132.5373077392578,57.72430419921875 L132.4001922607422,59.04896545410156 L132.31822204589844,60.717830657958984 L132.3301544189453,62.60666275024414 L132.48550415039062,64.5644302368164 L132.7969512939453,66.4450454711914 L133.25595092773438,68.0987319946289 L133.8385467529297,69.40657043457031 L134.5289764404297,70.27259063720703 L135.29818725585938,70.64552307128906 L136.1373748779297,70.50935363769531 L137.02667236328125,69.86676788330078 L137.93804931640625,68.74824523925781 L138.84573364257812,67.24520111083984 L139.6969757080078,65.47212219238281 L140.427490234375,63.5747184753418 L140.99127197265625,61.70449447631836 L141.36444091796875,59.98642349243164 L141.55517578125,58.56184387207031 L141.60504150390625,57.544410705566406 L141.55909729003906,56.981956481933594 L141.48367309570312,56.77935028076172 L141.421875,56.78232955932617 M143.2669677734375,67.7755126953125 L143.60906982421875,67.57462310791016 L144.26966857910156,67.17588806152344 L145.24945068359375,66.56590270996094 L146.44410705566406,65.79068756103516 L147.7500457763672,64.89572143554688 L149.0664520263672,63.92258071899414 L150.2954559326172,62.89204025268555 L151.33697509765625,61.84531784057617 L152.0906219482422,60.814056396484375 L152.4808349609375,59.840782165527344 L152.45492553710938,59.00121307373047 L151.9960174560547,58.36429977416992 L151.105712890625,58.00433349609375 L149.84397888183594,58.004600524902344 L148.31008911132812,58.40242385864258 L146.65919494628906,59.193565368652344 L145.09799194335938,60.3389778137207 L143.79864501953125,61.72683334350586 L142.91111755371094,63.235984802246094 L142.5642547607422,64.76285552978516 L142.83016967773438,66.20795440673828 L143.71466064453125,67.48270416259766 L145.15333557128906,68.53668212890625 L147.0667266845703,69.29432678222656 L149.29580688476562,69.72506713867188 L151.6357879638672,69.84828186035156 L153.54464721679688,69.7909927368164 L154.74497985839844,69.67464447021484 M158.9693145751953,61.13182067871094 L158.94044494628906,61.0696907043457 L158.89292907714844,61.116844177246094 L158.82077026367188,61.405879974365234 L158.73068237304688,62.05284118652344 L158.62925720214844,63.03330993652344 L158.53652954101562,64.25320434570312 L158.47557067871094,65.56493377685547 L158.46421813964844,66.813232421875 L158.503662109375,67.86347198486328 L158.57342529296875,68.6114501953125 L158.65457153320312,68.97246551513672 L158.7189483642578,68.89794158935547 L158.75999450683594,68.3710708618164 L158.7794952392578,67.42186737060547 L158.79653930664062,66.16049194335938 L158.82130432128906,64.71224975585938 L158.88218688964844,63.19291687011719 L158.9985809326172,61.690834045410156 L159.21994018554688,60.271610260009766 L159.59999084472656,58.998661041259766 L160.1873779296875,57.94154357910156 L161.02549743652344,57.15420150756836 L162.13783264160156,56.66109085083008 L163.5136260986328,56.459014892578125 L165.110107421875,56.51757049560547 L166.8691864013672,56.800201416015625 L168.68698120117188,57.2369270324707 L170.48245239257812,57.77465057373047 L172.14114379882812,58.34517288208008 L173.55703735351562,58.88043975830078 L174.54556274414062,59.27735137939453 L175.08949279785156,59.50852966308594 M203.68675231933594,50.43571853637695 L203.5594024658203,49.93583679199219 L203.2440643310547,49.15819549560547 L202.67684936523438,48.240081787109375 L201.8250274658203,47.41432189941406 L200.67874145507812,46.770301818847656 L199.2702178955078,46.36072540283203 L197.69451904296875,46.210025787353516 L196.0770721435547,46.352684020996094 L194.58421325683594,46.818336486816406 L193.35865783691406,47.603919982910156 L192.51295471191406,48.69877243041992 L192.11741638183594,50.06352996826172 L192.23301696777344,51.64229202270508 L192.8910369873047,53.35912322998047 L194.09214782714844,55.155399322509766 L195.80545043945312,56.975345611572266 L197.93817138671875,58.771820068359375 L200.32827758789062,60.505889892578125 L202.78016662597656,62.13384246826172 L205.09176635742188,63.61768341064453 L207.04522705078125,64.93096923828125 L208.5187225341797,66.0627212524414 L209.4197998046875,67.00923156738281 L209.70620727539062,67.76565551757812 L209.3653564453125,68.3296127319336 L208.41490173339844,68.69682312011719 L206.85313415527344,68.86835479736328 L204.7506561279297,68.86053466796875 L202.18353271484375,68.70295715332031 L199.28384399414062,68.42118835449219 L196.24017333984375,68.04537200927734 L193.3125762939453,67.5835952758789 L190.7670135498047,67.04659271240234 L188.8268585205078,66.42764282226562 L187.60125732421875,65.74640655517578 L187.2003936767578,65.00030517578125 L187.6075439453125,64.21515655517578 L188.71878051757812,63.42336654663086 L189.9713592529297,62.79030990600586 L190.93495178222656,62.38856506347656 M213.6499481201172,46.87868881225586 L213.6516571044922,46.869712829589844 L213.64857482910156,46.99357986450195 L213.61830139160156,47.372032165527344 L213.54617309570312,48.10594940185547 L213.42648315429688,49.21588134765625 L213.27281188964844,50.68623352050781 L213.11114501953125,52.50337219238281 L212.9507598876953,54.62824249267578 L212.78228759765625,57.00135040283203 L212.60092163085938,59.530460357666016 L212.39544677734375,62.087520599365234 L212.19105529785156,64.51205444335938 L212.0125732421875,66.63893127441406 L211.89071655273438,68.33390045166016 L211.837646484375,69.52698516845703 L211.8570098876953,70.13988494873047 L211.92201232910156,70.17388153076172 L212.0389862060547,69.6939697265625 L212.15499877929688,69.04122161865234 L212.24407958984375,68.49984741210938 M208.13015747070312,57.99056625366211 L208.2721405029297,57.924720764160156 L208.69631958007812,57.845069885253906 L209.5234375,57.78456115722656 L210.76930236816406,57.76851272583008 L212.3478240966797,57.77109146118164 L214.11557006835938,57.74999237060547 L215.90853881835938,57.67676544189453 L217.5994873046875,57.53781509399414 L219.07791137695312,57.349693298339844 L220.26351928710938,57.1375617980957 L221.0560760498047,56.95847702026367 L221.47183227539062,56.8424186706543 M224.87191772460938,56.13258743286133 L224.86395263671875,56.26344680786133 L224.81373596191406,56.61241149902344 L224.6943817138672,57.27229690551758 L224.48345947265625,58.27323532104492 L224.2108612060547,59.59128189086914 L223.92822265625,61.15802764892578 L223.73410034179688,62.876502990722656 L223.7423858642578,64.61283111572266 L224.05752563476562,66.22653198242188 L224.71463012695312,67.57320404052734 L225.7131805419922,68.53374481201172 L226.97833251953125,69.02198028564453 L228.42678833007812,69.0049057006836 L229.95046997070312,68.49665069580078 L231.4454803466797,67.5626449584961 L232.80140686035156,66.29475402832031 L233.94293212890625,64.79783630371094 L234.8140869140625,63.168270111083984 L235.41183471679688,61.511497497558594 L235.76779174804688,59.95282745361328 L235.93357849121094,58.620018005371094 L235.98255920410156,57.608577728271484 L235.97116088867188,56.983070373535156 L235.93971252441406,56.76497268676758 L235.90249633789062,56.96226501464844 L235.88003540039062,57.58364486694336 L235.8655548095703,58.61900329589844 L235.87448120117188,59.989444732666016 L235.91197204589844,61.578857421875 L236.00161743164062,63.237850189208984 L236.1382293701172,64.82706451416016 L236.36920166015625,66.21780395507812 L236.7023468017578,67.31523895263672 L237.1370849609375,68.05438232421875 L237.54238891601562,68.45040893554688 L237.83419799804688,68.59452819824219 M250.9756317138672,62.69775390625 L251.00650024414062,62.23373031616211 L250.9335174560547,61.49271774291992 L250.6634063720703,60.58043670654297 L250.10997009277344,59.70796203613281 L249.2714385986328,58.945068359375 L248.1741943359375,58.358150482177734 L246.86976623535156,58.00018310546875 L245.4157257080078,57.94248962402344 L243.9056854248047,58.24762725830078 L242.44142150878906,58.94538116455078 L241.15826416015625,60.00223159790039 L240.18618774414062,61.33375930786133 L239.64967346191406,62.81840133666992 L239.65383911132812,64.31291961669922 L240.2234344482422,65.6824722290039 L241.3143768310547,66.80128479003906 L242.82723999023438,67.55525970458984 L244.6200714111328,67.85383605957031 L246.53599548339844,67.6435317993164 L248.44740295410156,66.92198944091797 L250.21517944335938,65.73270416259766 L251.7281036376953,64.14144897460938 L252.91639709472656,62.231788635253906 L253.77529907226562,60.109153747558594 L254.3289337158203,57.87910079956055 L254.6511688232422,55.66263961791992 L254.80245971679688,53.57718276977539 L254.8365936279297,51.749534606933594 L254.80128479003906,50.2728271484375 L254.74771118164062,49.22697448730469 L254.6966552734375,48.64667510986328 L254.66090393066406,48.55727767944336 L254.63023376464844,48.96952819824219 L254.59971618652344,49.915382385253906 L254.55470275878906,51.35139465332031 L254.4994354248047,53.194549560546875 L254.4588165283203,55.322628021240234 L254.46656799316406,57.60336685180664 L254.558349609375,59.897518157958984 L254.7550811767578,62.08112335205078 L255.04721069335938,64.0126953125 L255.39263916015625,65.57146453857422 L255.74588012695312,66.6993408203125 L256.09765625,67.33792877197266 L256.45220947265625,67.48983764648438 L256.82275390625,67.22120666503906 L257.1448974609375,66.79625701904297 L257.36492919921875,66.426025390625 M262.1534729003906,59.25627899169922 L262.16766357421875,59.25886917114258 L262.1730041503906,59.36765670776367 L262.1480712890625,59.68429946899414 L262.06854248046875,60.301273345947266 L261.946533203125,61.24039840698242 L261.80328369140625,62.455223083496094 L261.6528015136719,63.83563995361328 L261.5583190917969,65.21099090576172 L261.5520324707031,66.38981628417969 L261.6416320800781,67.22909545898438 L261.7747497558594,67.69253540039062 L261.890380859375,67.86246490478516 M262.49835205078125,49.974815368652344 L262.42755126953125,49.45049285888672 L262.3369445800781,48.763389587402344 L262.2337646484375,48.104766845703125 L262.1868896484375,47.74504852294922 L262.2398376464844,47.68958282470703 L262.42315673828125,47.86884689331055 L262.6515808105469,48.10004806518555 L262.8526611328125,48.294715881347656 M277.8614501953125,62.10280990600586 L277.83331298828125,61.708213806152344 L277.67822265625,61.0302734375 L277.3057556152344,60.140316009521484 L276.65411376953125,59.229129791259766 L275.7142028808594,58.418251037597656 L274.5122375488281,57.806304931640625 L273.09326171875,57.45719909667969 L271.520263671875,57.42432403564453 L269.9096984863281,57.741031646728516 L268.42535400390625,58.417030334472656 L267.25225830078125,59.42326354980469 L266.53863525390625,60.687538146972656 L266.3941955566406,62.10097122192383 L266.8690185546875,63.524234771728516 L267.97674560546875,64.80338287353516 L269.6749267578125,65.79277038574219 L271.85882568359375,66.36868286132812 L274.32684326171875,66.47057342529297 L276.8105163574219,66.08763122558594 L279.0030212402344,65.2784423828125 L280.6508483886719,64.12934875488281 L281.5899658203125,62.75413513183594 L281.82489013671875,61.262474060058594 L281.4250183105469,59.77263641357422 L280.4936828613281,58.365203857421875 L279.49169921875,57.29518508911133 L278.7303161621094,56.65038299560547 " fill="none" stroke="rgb(80,94,161)" stroke-linecap="round" stroke-width="1" /></svg>