<?xml version="1.0" encoding="utf-8" ?>
<svg baseProfile="full" height="100%" version="1.1" viewBox="0,0,420,240" width="100%" xmlns="http://www.w3.org/2000/svg" xmlns:ev="http://www.w3.org/2001/xml-events" xmlns:xlink="http://www.w3.org/1999/xlink"><defs /><rect fill="none" height="240" width="420" x="0" y="0" /><path d="M0,0 M117.75424194335938,46.94631576538086 L117.79744720458984,47.159881591796875 L117.8489990234375,47.68654251098633 L117.88288879394531,48.64125442504883 L117.8631591796875,50.06418228149414 L117.75424194335938,51.96100616455078 L117.56623840332031,54.305721282958984 L117.3223876953125,57.035648345947266 L117.04898071289062,60.07172393798828 L116.78025817871094,63.28947067260742 L116.54696655273438,66.53509521484375 L116.34352111816406,69.63648986816406 L116.2044448852539,72.36003875732422 L116.14692687988281,74.47396850585938 L116.18312072753906,75.84286499023438 L116.26495361328125,76.51721954345703 L116.34949493408203,76.71470642089844 M116.43589782714844,48.15019226074219 L116.61355590820312,47.5023193359375 L117.08375549316406,46.6094970703125 L117.9749526977539,45.713348388671875 L119.31953430175781,45.15633773803711 L121.04882049560547,45.0 L123.02156066894531,45.258888244628906 L125.09453582763672,45.878944396972656 L127.09608459472656,46.84001159667969 L128.90008544921875,48.07796859741211 L130.40870666503906,49.50595474243164 L131.54656982421875,51.02522277832031 L132.267333984375,52.552101135253906 L132.55557250976562,54.02072525024414 L132.40289306640625,55.37316131591797 L131.79872131347656,56.58024978637695 L130.769775390625,57.628658294677734 L129.3704833984375,58.5069580078125 L127.69676971435547,59.2110481262207 L125.86717224121094,59.748619079589844 L124.03764343261719,60.1243782043457 L122.32884216308594,60.358673095703125 L120.85491180419922,60.47647476196289 L119.67091369628906,60.499732971191406 L118.87997436523438,60.440853118896484 L118.53091430664062,60.31831359863281 L118.63823699951172,60.156925201416016 L118.97090911865234,60.01144790649414 L119.31428527832031,59.91474914550781 M135.429443359375,62.023921966552734 L135.46279907226562,62.06981658935547 L135.50192260742188,62.19778060913086 L135.51963806152344,62.450870513916016 L135.48486328125,62.86795425415039 L135.3887176513672,63.49064254760742 L135.245361328125,64.34580993652344 L135.0550537109375,65.44227600097656 L134.84048461914062,66.74539184570312 L134.62551879882812,68.16104888916016 L134.44601440429688,69.5740737915039 L134.34255981445312,70.88307189941406 L134.37435913085938,71.9562759399414 L134.54470825195312,72.68970489501953 L134.83233642578125,73.03036499023438 L135.120361328125,73.07770538330078 L135.32528686523438,72.9823226928711 M136.90841674804688,47.22736740112305 L136.83888244628906,46.86992645263672 L136.75167846679688,46.43083572387695 L136.65928649902344,46.047664642333984 L136.59141540527344,45.87454605102539 L136.55331420898438,45.864234924316406 L136.55465698242188,45.95706558227539 L136.58148193359375,46.05689239501953 L136.62039184570312,46.13656997680664 M143.22991943359375,61.26326370239258 L143.21702575683594,61.48429489135742 L143.21615600585938,61.95886993408203 L143.21051025390625,62.741249084472656 L143.1879119873047,63.808162689208984 L143.1029815673828,65.12848663330078 L142.95474243164062,66.63866424560547 L142.74961853027344,68.24305725097656 L142.5109100341797,69.80775451660156 L142.24935913085938,71.1854019165039 L141.98941040039062,72.25376892089844 L141.75100708007812,72.93997192382812 L141.57823181152344,73.19725036621094 L141.510986328125,72.99771118164062 L141.5884552001953,72.32498168945312 L141.8526153564453,71.19475555419922 L142.32765197753906,69.7007064819336 L143.02151489257812,67.98338317871094 L143.92115783691406,66.19194030761719 L144.99935913085938,64.46986389160156 L146.1927032470703,62.947723388671875 L147.4449462890625,61.73072052001953 L148.70062255859375,60.918148040771484 L149.9127197265625,60.56486892700195 L151.06524658203125,60.68122482299805 L152.14370727539062,61.23723602294922 L153.10557556152344,62.18598175048828 L153.90518188476562,63.44657516479492 L154.5037841796875,64.94198608398438 L154.88845825195312,66.58172607421875 L155.1029052734375,68.26683044433594 L155.19964599609375,69.88005828857422 L155.28292846679688,71.26487731933594 L155.4271240234375,72.25872802734375 L155.68020629882812,72.77786254882812 L155.95452880859375,72.9243392944336 L156.1734619140625,72.87254333496094 M160.89024353027344,48.38470458984375 L160.88551330566406,48.48979949951172 L160.89239501953125,48.850433349609375 L160.90481567382812,49.594303131103516 L160.915771484375,50.77738952636719 L160.90811157226562,52.3798942565918 L160.87078857421875,54.350982666015625 L160.80078125,56.62233352661133 L160.70962524414062,59.118255615234375 L160.59829711914062,61.721778869628906 L160.48855590820312,64.28287506103516 L160.38912963867188,66.656982421875 L160.3018798828125,68.698974609375 L160.23220825195312,70.28826904296875 L160.19125366210938,71.3858642578125 L160.17181396484375,72.0033187866211 L160.17413330078125,72.25857543945312 M167.23696899414062,62.886966705322266 L167.48947143554688,62.545406341552734 L167.72738647460938,62.12136459350586 L167.75424194335938,61.779319763183594 L167.37115478515625,61.735931396484375 L166.56072998046875,62.040679931640625 L165.38385009765625,62.66460037231445 L164.00741577148438,63.53361511230469 L162.5839080810547,64.57997131347656 L161.28585815429688,65.70388793945312 L160.29409790039062,66.81725311279297 L159.7568359375,67.8661117553711 L159.7529296875,68.78275299072266 L160.3436279296875,69.52201843261719 L161.51382446289062,70.05726623535156 L163.1650390625,70.37955474853516 L165.19833374023438,70.47881317138672 L167.43917846679688,70.38575744628906 L169.64996337890625,70.13177490234375 L171.37405395507812,69.84730529785156 L172.41604614257812,69.63035583496094 M175.12814331054688,62.11187744140625 L175.175537109375,62.33115005493164 L175.22848510742188,62.8414421081543 L175.26644897460938,63.69581985473633 L175.25726318359375,64.84624481201172 L175.22793579101562,66.19084930419922 L175.20880126953125,67.58354187011719 L175.2203369140625,68.8731460571289 L175.27386474609375,69.94406127929688 L175.35079956054688,70.69631958007812 L175.39898681640625,71.05791473388672 L175.40704345703125,70.98391723632812 L175.36102294921875,70.45330810546875 L175.2779541015625,69.49005126953125 L175.19192504882812,68.20465087890625 L175.12655639648438,66.74421691894531 L175.10293579101562,65.24793243408203 L175.16107177734375,63.81352615356445 L175.3544921875,62.5212287902832 L175.748291015625,61.42003631591797 L176.4033203125,60.57354736328125 L177.34356689453125,60.020870208740234 L178.5421142578125,59.76118469238281 L179.91543579101562,59.754676818847656 L181.37469482421875,59.972042083740234 L182.77645874023438,60.33453369140625 L184.01318359375,60.77294921875 L184.9007568359375,61.14978790283203 L185.39645385742188,61.38935089111328 M187.66317749023438,58.0845832824707 L187.6923828125,58.05455017089844 L187.74368286132812,58.06996536254883 L187.8134765625,58.216434478759766 L187.89382934570312,58.599021911621094 L187.968994140625,59.28007507324219 L188.02288818359375,60.2898063659668 L188.00665283203125,61.60297393798828 L187.91326904296875,63.18128967285156 L187.73492431640625,64.9574966430664 L187.49502563476562,66.85708618164062 L187.21954345703125,68.77820587158203 L186.95501708984375,70.62071228027344 L186.72305297851562,72.25157165527344 L186.54815673828125,73.56439971923828 L186.43829345703125,74.43070983886719 L186.38531494140625,74.87177276611328 M193.670166015625,63.217777252197266 L193.66854858398438,63.16069793701172 L193.65234375,63.1703987121582 L193.61471557617188,63.35980224609375 L193.56234741210938,63.85377883911133 L193.51443481445312,64.69227600097656 L193.48080444335938,65.85651397705078 L193.4775390625,67.26531219482422 L193.51962280273438,68.8127212524414 L193.64602661132812,70.36479949951172 L193.87835693359375,71.77961730957031 L194.19363403320312,72.92878723144531 L194.56076049804688,73.7219009399414 L194.94210815429688,74.09246826171875 L195.32769775390625,74.00179290771484 L195.77810668945312,73.43489074707031 L196.34405517578125,72.39116668701172 L197.03579711914062,70.94187927246094 L197.82925415039062,69.21563720703125 L198.65365600585938,67.3724594116211 L199.41036987304688,65.57711791992188 L200.02413940429688,63.99607849121094 L200.45309448242188,62.740501403808594 L200.69326782226562,61.925804138183594 L200.78839111328125,61.5208740234375 M203.83364868164062,70.86473083496094 L204.205810546875,70.63599395751953 L204.8602294921875,70.18099212646484 L205.74249267578125,69.48809051513672 L206.69952392578125,68.63236236572266 L207.61810302734375,67.6748046875 L208.4012451171875,66.6728515625 L208.98226928710938,65.6727066040039 L209.27981567382812,64.7165756225586 L209.246826171875,63.86192321777344 L208.88653564453125,63.1941032409668 L208.21942138671875,62.79454040527344 L207.30889892578125,62.725589752197266 L206.245361328125,63.01293182373047 L205.15921020507812,63.645259857177734 L204.19989013671875,64.57542419433594 L203.52035522460938,65.7375717163086 L203.2386474609375,67.04595184326172 L203.42819213867188,68.40707397460938 L204.09915161132812,69.71912384033203 L205.2403564453125,70.88414764404297 L206.79281616210938,71.81244659423828 L208.65158081054688,72.43162536621094 L210.68603515625,72.68692016601562 L212.73260498046875,72.5564193725586 L214.61587524414062,72.05908966064453 L216.20037841796875,71.2554931640625 L217.38894653320312,70.25636291503906 L218.1376953125,69.17613220214844 L218.47451782226562,68.11274719238281 L218.484130859375,67.14401245117188 L218.28436279296875,66.32747650146484 L218.01138305664062,65.71540832519531 L217.77493286132812,65.38280487060547 L217.62460327148438,65.36644744873047 L217.5657958984375,65.67052459716797 L217.59982299804688,66.26496887207031 L217.68869018554688,67.0721664428711 L217.81268310546875,68.0032730102539 L217.96182250976562,68.97134399414062 L218.09326171875,69.86839294433594 L218.187744140625,70.61156463623047 L218.24880981445312,71.11920928955078 L218.2569580078125,71.31721496582031 L218.21646118164062,71.16006469726562 L218.13772583007812,70.61904907226562 L218.0216064453125,69.70844268798828 L217.90411376953125,68.5194091796875 L217.818603515625,67.1534423828125 L217.78851318359375,65.7332763671875 L217.856689453125,64.36264038085938 L218.07681274414062,63.11071014404297 L218.51766967773438,62.033573150634766 L219.25506591796875,61.182655334472656 L220.31427001953125,60.5829963684082 L221.6563720703125,60.256317138671875 L223.2445068359375,60.20099639892578 L224.9547119140625,60.372581481933594 L226.641357421875,60.69293975830078 L227.96319580078125,61.00932693481445 L228.7647705078125,61.22511291503906 M254.01528930664062,52.14412307739258 L253.43841552734375,51.73466110229492 L252.39718627929688,51.17530822753906 L250.91757202148438,50.631065368652344 L249.17474365234375,50.338905334472656 L247.27304077148438,50.372039794921875 L245.370361328125,50.74873733520508 L243.6417236328125,51.438133239746094 L242.32293701171875,52.413570404052734 L241.6260986328125,53.6023063659668 L241.70989990234375,54.922847747802734 L242.64981079101562,56.308433532714844 L244.42636108398438,57.69636535644531 L246.8753662109375,59.056209564208984 L249.75100708007812,60.37841033935547 L252.72988891601562,61.65433120727539 L255.50289916992188,62.8916130065918 L257.812255859375,64.08766174316406 L259.50274658203125,65.2268295288086 L260.4574890136719,66.2997817993164 L260.63525390625,67.28728485107422 L260.0352478027344,68.16480255126953 L258.7041931152344,68.92137145996094 L256.7352600097656,69.52449798583984 L254.2969970703125,69.95721435546875 L251.55661010742188,70.2138442993164 L248.7257080078125,70.29313659667969 L246.032470703125,70.19618225097656 L243.66619873046875,69.94027709960938 L241.78515625,69.5307388305664 L240.49887084960938,69.00326538085938 L239.79800415039062,68.39964294433594 L239.73611450195312,67.74853515625 L240.28982543945312,67.08196258544922 L241.3541259765625,66.4397201538086 L242.46905517578125,65.93623352050781 L243.30392456054688,65.62823486328125 M264.5126953125,49.717750549316406 L264.6120910644531,49.69807815551758 L264.7466125488281,49.83720397949219 L264.8807067871094,50.289276123046875 L264.96417236328125,51.189666748046875 L264.999267578125,52.560890197753906 L264.9997253417969,54.36586380004883 L264.9920959472656,56.52064514160156 L264.9785461425781,58.93209457397461 L264.9700927734375,61.462886810302734 L264.97406005859375,63.95620346069336 L264.99371337890625,66.23370361328125 L265.035400390625,68.09078979492188 L265.10162353515625,69.37979888916016 L265.1741027832031,70.06221008300781 L265.2342529296875,70.28296661376953 L265.27301025390625,70.2599868774414 M261.1849670410156,62.182010650634766 L261.2632141113281,62.0979118347168 L261.5393371582031,61.99203872680664 L262.14007568359375,61.899879455566406 L263.137451171875,61.86104202270508 L264.53167724609375,61.87263107299805 L266.2464599609375,61.89466857910156 L268.1234130859375,61.87614822387695 L270.0135803222656,61.77092742919922 L271.7439880371094,61.559417724609375 L273.1640319824219,61.260860443115234 L274.1204528808594,60.98392105102539 L274.6202087402344,60.794769287109375 M276.3663024902344,60.366188049316406 L276.326171875,60.45302963256836 L276.24615478515625,60.71250534057617 L276.11260986328125,61.22108459472656 L275.9347229003906,62.01326370239258 L275.7407531738281,63.055381774902344 L275.5984802246094,64.28270721435547 L275.59527587890625,65.58399200439453 L275.8241882324219,66.84773254394531 L276.33721923828125,67.9389419555664 L277.1454772949219,68.7543716430664 L278.2200012207031,69.2037582397461 L279.4997863769531,69.25006866455078 L280.893310546875,68.87557983398438 L282.28826904296875,68.11898040771484 L283.56878662109375,67.03899383544922 L284.6470031738281,65.75115966796875 L285.4778747558594,64.37670135498047 L286.066162109375,63.045692443847656 L286.4341125488281,61.86087417602539 L286.6255798339844,60.907344818115234 L286.6924133300781,60.218265533447266 L286.6866149902344,59.822792053222656 L286.6363220214844,59.73776626586914 L286.5621337890625,59.975650787353516 L286.48150634765625,60.550445556640625 L286.4100036621094,61.422569274902344 L286.3805847167969,62.49665451049805 L286.45599365234375,63.701194763183594 L286.6604919433594,64.9403076171875 L286.99395751953125,66.11990356445312 L287.3384704589844,67.03517150878906 L287.5900573730469,67.58845520019531 M298.3747863769531,65.4439468383789 L298.34344482421875,65.01871490478516 L298.2000732421875,64.31977081298828 L297.8789367675781,63.448448181152344 L297.3163757324219,62.61478042602539 L296.4864501953125,61.92475128173828 L295.383056640625,61.4449577331543 L294.0664978027344,61.227500915527344 L292.6429443359375,61.30473709106445 L291.287841796875,61.69472122192383 L290.1582946777344,62.391048431396484 L289.3794860839844,63.342926025390625 L289.0244140625,64.454345703125 L289.1352844238281,65.61439514160156 L289.7271728515625,66.6679458618164 L290.7905578613281,67.4690170288086 L292.25445556640625,67.90389251708984 L294.00152587890625,67.9002456665039 L295.9018249511719,67.43647766113281 L297.80841064453125,66.52906799316406 L299.615234375,65.20146179199219 L301.23931884765625,63.512413024902344 L302.63427734375,61.54893493652344 L303.77490234375,59.43412399291992 L304.6639099121094,57.317726135253906 L305.30145263671875,55.35317611694336 L305.7226257324219,53.67729568481445 L305.9463195800781,52.38884735107422 L306.0205383300781,51.56230926513672 L305.982177734375,51.25172805786133 L305.8609619140625,51.483184814453125 L305.68060302734375,52.26089859008789 L305.4635925292969,53.55004119873047 L305.2124328613281,55.23609161376953 L304.9722595214844,57.18830871582031 L304.7988586425781,59.26913070678711 L304.761962890625,61.33476257324219 L304.9198913574219,63.26761245727539 L305.27728271484375,64.9581298828125 L305.7840270996094,66.3092041015625 L306.4123229980469,67.23922729492188 L307.11090087890625,67.72689819335938 L307.836181640625,67.81019592285156 L308.43359375,67.67768096923828 L308.81634521484375,67.49967193603516 M312.57415771484375,62.05125045776367 L312.6156311035156,61.931270599365234 L312.66448974609375,61.84276580810547 L312.6839599609375,61.89625549316406 L312.6484375,62.22921371459961 L312.5734558105469,62.87894821166992 L312.4665832519531,63.82070541381836 L312.3778076171875,64.9381332397461 L312.35357666015625,66.09820556640625 L312.4010009765625,67.12628173828125 L312.52972412109375,67.910400390625 L312.6800842285156,68.38993835449219 L312.79058837890625,68.61043548583984 M312.6781005859375,52.825340270996094 L312.6076354980469,52.56803894042969 L312.54742431640625,52.28898239135742 L312.51361083984375,52.0744514465332 L312.5224609375,52.01073455810547 M326.265380859375,60.5276985168457 L326.1306457519531,60.206459045410156 L325.81768798828125,59.72528839111328 L325.223388671875,59.195343017578125 L324.30072021484375,58.823055267333984 L323.0295104980469,58.710479736328125 L321.4745788574219,58.93116760253906 L319.7855529785156,59.49996566772461 L318.18487548828125,60.38249588012695 L316.88555908203125,61.49046325683594 L316.1130676269531,62.72628402709961 L316.0182800292969,63.966068267822266 L316.6590576171875,65.08522033691406 L318.0175476074219,65.97034454345703 L319.981689453125,66.51752471923828 L322.3556213378906,66.6699447631836 L324.90069580078125,66.4268569946289 L327.3480224609375,65.81478881835938 L329.4386291503906,64.87913513183594 L331.00213623046875,63.69414138793945 L331.91571044921875,62.344390869140625 L332.13287353515625,60.94551467895508 L331.6798400878906,59.62416076660156 L330.6567077636719,58.493568420410156 L329.1790771484375,57.65188217163086 L327.4698791503906,57.160072326660156 L325.7496643066406,57.006134033203125 L324.4049987792969,57.056522369384766 L323.6002197265625,57.17279052734375 " fill="none" stroke="rgb(80,94,161)" stroke-linecap="round" stroke-width="1" /><path d="M0,0 M50.76336669921875,110.46717834472656 L50.73865509033203,110.45160675048828 L50.719539642333984,110.50726318359375 L50.735897064208984,110.75082397460938 L50.78236770629883,111.31321716308594 L50.814186096191406,112.29644775390625 L50.79530334472656,113.74388885498047 L50.732383728027344,115.65684509277344 L50.61308288574219,117.98603820800781 L50.463645935058594,120.66405487060547 L50.26948547363281,123.59284973144531 L50.0115852355957,126.62535095214844 L49.719303131103516,129.5849151611328 L49.45823669433594,132.24647521972656 L49.256858825683594,134.39785766601562 L49.15180969238281,135.90301513671875 L49.15296173095703,136.63426208496094 L49.23335647583008,136.5775909423828 L49.381954193115234,135.8690185546875 L49.538612365722656,134.97210693359375 L49.65000915527344,134.25506591796875 M43.82111358642578,112.97821807861328 L43.44168472290039,112.2364501953125 L43.09798049926758,111.12035369873047 L43.0534782409668,109.78372192382812 L43.61885070800781,108.50227355957031 L44.869136810302734,107.32151794433594 L46.763099670410156,106.29721069335938 L49.1807861328125,105.48971557617188 L52.01610565185547,105.03721618652344 L55.050262451171875,105.0 L58.046138763427734,105.37973022460938 L60.79106903076172,106.13795471191406 L63.075096130371094,107.19773864746094 L64.74787902832031,108.46138000488281 L65.71281433105469,109.8166275024414 L65.92060852050781,111.17322540283203 L65.34571075439453,112.46468353271484 L64.04977416992188,113.64250946044922 L62.16781997680664,114.6848373413086 L59.91535568237305,115.56080627441406 L57.564414978027344,116.2283935546875 L55.41136932373047,116.68217468261719 L53.660789489746094,116.94879150390625 L52.50939178466797,117.07048797607422 L51.9296760559082,117.11251068115234 M61.939231872558594,124.2719497680664 L61.805816650390625,124.42810821533203 L61.59153747558594,124.77877044677734 L61.331573486328125,125.38768005371094 L61.08555603027344,126.25946807861328 L60.90373229980469,127.38284301757812 L60.83982849121094,128.7149200439453 L60.950408935546875,130.1626739501953 L61.29261779785156,131.5892791748047 L61.88987731933594,132.83998107910156 L62.72856521606445,133.75547790527344 L63.78791046142578,134.2271270751953 L65.02210998535156,134.2045135498047 L66.37435913085938,133.68177795410156 L67.78227233886719,132.7171630859375 L69.14627075195312,131.40130615234375 L70.37677764892578,129.85507202148438 L71.40960693359375,128.2296600341797 L72.19917297363281,126.69265747070312 L72.74272918701172,125.37770080566406 L73.07417297363281,124.39457702636719 L73.22779846191406,123.78876495361328 L73.26166534423828,123.57047271728516 L73.24197387695312,123.73674011230469 L73.22172546386719,124.29216003417969 L73.25074768066406,125.2088851928711 L73.35380554199219,126.42122650146484 L73.54289245605469,127.80740356445312 L73.85459899902344,129.24383544921875 L74.28994750976562,130.5889129638672 L74.82534790039062,131.73019409179688 L75.30912017822266,132.52272033691406 L75.63511657714844,132.950439453125 M79.75302124023438,126.09322357177734 L79.71411895751953,125.74742889404297 L79.67990112304688,125.3288345336914 L79.65451049804688,125.01689910888672 L79.62712860107422,125.03475189208984 L79.54679870605469,125.43460845947266 L79.3798828125,126.20565032958984 L79.11617279052734,127.26283264160156 L78.805908203125,128.51121520996094 L78.50935363769531,129.79794311523438 L78.26869201660156,130.95150756835938 L78.11590576171875,131.83982849121094 L78.04698181152344,132.35569763183594 L78.05766296386719,132.4539794921875 L78.15835571289062,132.11703491210938 L78.37858581542969,131.36988830566406 L78.7197494506836,130.2783660888672 L79.19769287109375,128.9586181640625 L79.77953338623047,127.5291976928711 L80.42925262451172,126.11458587646484 L81.12415313720703,124.79639434814453 L81.86595153808594,123.63273620605469 L82.65353393554688,122.66372680664062 L83.52676391601562,121.93055725097656 L84.4962158203125,121.44647216796875 L85.55964660644531,121.20719909667969 L86.70616149902344,121.18104553222656 L87.90206909179688,121.31226348876953 L89.1308364868164,121.54500579833984 L90.3588638305664,121.82745361328125 L91.51838684082031,122.10708618164062 L92.40719604492188,122.32108306884766 L92.9408187866211,122.4476318359375 M101.2818832397461,123.76716613769531 L101.17092895507812,123.44062042236328 L100.84773254394531,122.93318939208984 L100.18482208251953,122.3447494506836 L99.10869598388672,121.86189270019531 L97.6403579711914,121.5576171875 L95.91429901123047,121.47191619873047 L94.15504455566406,121.58636474609375 L92.60529327392578,121.89690399169922 L91.47111511230469,122.39027404785156 L90.88717651367188,123.0628433227539 L90.92948913574219,123.8795394897461 L91.62835693359375,124.79206085205078 L92.96244812011719,125.73845672607422 L94.81535339355469,126.6758041381836 L96.99898529052734,127.57903289794922 L99.25885009765625,128.4485626220703 L101.32393646240234,129.27488708496094 L102.9727554321289,130.0393524169922 L104.08279418945312,130.72454833984375 L104.59978485107422,131.30873107910156 L104.55052185058594,131.7901611328125 L104.00564575195312,132.17608642578125 L103.0226821899414,132.46978759765625 L101.6476058959961,132.66079711914062 L99.96902465820312,132.7498779296875 L98.0761489868164,132.73648071289062 L96.09871673583984,132.64291381835938 L94.19482421875,132.48960876464844 L92.49493408203125,132.29592895507812 L91.07452392578125,132.05580139160156 L89.99363708496094,131.77256774902344 L89.34239196777344,131.4285888671875 L89.18974304199219,131.02740478515625 L89.56413269042969,130.59217834472656 L90.16015625,130.22921752929688 L90.69197845458984,129.99374389648438 M110.1378402709961,123.10319519042969 L110.10310363769531,123.08090209960938 L110.02256774902344,123.15518188476562 L109.8802719116211,123.43014526367188 L109.6808853149414,124.00157928466797 L109.45258331298828,124.88488006591797 L109.26142120361328,126.04346466064453 L109.19326782226562,127.40595245361328 L109.32807159423828,128.8645477294922 L109.73667907714844,130.2832489013672 L110.46780395507812,131.50811767578125 L111.54663848876953,132.38807678222656 L112.95415496826172,132.80581665039062 L114.63003540039062,132.71803283691406 L116.45063018798828,132.13668823242188 L118.25373840332031,131.13507080078125 L119.88252258300781,129.8223114013672 L121.20844268798828,128.31564331054688 L122.17008209228516,126.7496337890625 L122.77847290039062,125.29278564453125 L123.0892105102539,124.07284545898438 L123.18061828613281,123.19210052490234 L123.1356201171875,122.70806121826172 L123.00177001953125,122.6277847290039 L122.82593536376953,122.95507049560547 L122.635986328125,123.7064208984375 L122.48146057128906,124.82978057861328 L122.40300750732422,126.21232604980469 L122.48348999023438,127.73126983642578 L122.75749969482422,129.23828125 L123.23699951171875,130.61138916015625 L123.7307357788086,131.63394165039062 L124.10417175292969,132.2355194091797 M127.47076416015625,129.8030548095703 L127.7038803100586,129.69007873535156 L128.2126007080078,129.4353485107422 L129.04380798339844,129.0050811767578 L130.13584899902344,128.39654541015625 L131.38922119140625,127.61436462402344 L132.67156982421875,126.69745635986328 L133.83840942382812,125.70668029785156 L134.77151489257812,124.7115249633789 L135.36831665039062,123.79273223876953 L135.5375518798828,123.01233673095703 L135.221435546875,122.42535400390625 L134.39794921875,122.10469818115234 L133.0870361328125,122.12449645996094 L131.41329956054688,122.53302001953125 L129.58282470703125,123.32676696777344 L127.85295867919922,124.44583892822266 L126.5009536743164,125.78629302978516 L125.74822235107422,127.22247314453125 L125.73880004882812,128.62777709960938 L126.54486083984375,129.88653564453125 L128.13516235351562,130.88934326171875 L130.38650512695312,131.58352661132812 L133.09640502929688,131.9705810546875 L136.06906127929688,132.06869506835938 L139.05909729003906,131.9347686767578 L141.84173583984375,131.6428680419922 L143.93234252929688,131.33421325683594 L145.16238403320312,131.1081085205078 M170.58868408203125,110.87577056884766 L170.63265991210938,110.80830383300781 L170.70748901367188,110.84561920166016 L170.797119140625,111.13703155517578 L170.85910034179688,111.8349609375 L170.86325073242188,112.98490142822266 L170.77328491210938,114.56617736816406 L170.57894897460938,116.50678253173828 L170.27914428710938,118.72654724121094 L169.90237426757812,121.1306381225586 L169.489990234375,123.61431884765625 L169.09088134765625,126.04000854492188 L168.73968505859375,128.23580932617188 L168.47186279296875,130.02676391601562 L168.29434204101562,131.29893493652344 L168.20230102539062,132.0290985107422 L168.17315673828125,132.33628845214844 M160.443603515625,111.54322052001953 L160.43531799316406,111.25608825683594 L160.71200561523438,110.84921264648438 L161.5057830810547,110.39305877685547 L163.01004028320312,109.98979949951172 L165.23184204101562,109.62356567382812 L168.0718994140625,109.26811981201172 L171.37017822265625,108.91737365722656 L174.94766235351562,108.61767578125 L178.55398559570312,108.39593505859375 L181.96865844726562,108.2785415649414 L184.98260498046875,108.2579116821289 L187.32534790039062,108.32830810546875 L188.8118896484375,108.48607635498047 L189.36441040039062,108.7232437133789 L189.28646850585938,108.95397186279297 L188.96633911132812,109.12757110595703 M165.30072021484375,123.83644104003906 L165.84039306640625,124.11627197265625 L166.91714477539062,124.45963287353516 L168.58148193359375,124.73763275146484 L170.70355224609375,124.78498840332031 L173.18170166015625,124.61905670166016 L175.87652587890625,124.31607055664062 L178.60906982421875,123.9691390991211 L181.17816162109375,123.64452362060547 L183.3883056640625,123.40995788574219 L185.07977294921875,123.359619140625 L186.14193725585938,123.43730926513672 L186.65972900390625,123.57119750976562 M185.85958862304688,125.95901489257812 L185.54165649414062,126.54076385498047 L185.05267333984375,127.54021453857422 L184.46563720703125,128.8549346923828 L183.93252563476562,130.2216796875 L183.50982666015625,131.4844512939453 L183.229248046875,132.52455139160156 L183.08419799804688,133.25302124023438 L183.06906127929688,133.5862274169922 L183.1414794921875,133.46063232421875 L183.27398681640625,132.84869384765625 L183.45318603515625,131.7817840576172 L183.63992309570312,130.37168884277344 L183.80462646484375,128.74688720703125 L183.93447875976562,127.0586166381836 L184.02975463867188,125.44859313964844 L184.13662719726562,124.02606201171875 L184.333251953125,122.8701400756836 L184.69161987304688,122.0323486328125 L185.30059814453125,121.51696014404297 L186.22369384765625,121.31307220458984 L187.49163818359375,121.39817810058594 L189.0760498046875,121.71666717529297 L190.89749145507812,122.18201446533203 L192.86993408203125,122.72013092041016 L194.84979248046875,123.25360107421875 L196.6666259765625,123.73941040039062 L198.01821899414062,124.10417175292969 L198.7939453125,124.32262420654297 M196.8470458984375,129.7861785888672 L196.99697875976562,129.78677368164062 L197.39645385742188,129.72532653808594 L198.13079833984375,129.55384826660156 L199.21182250976562,129.24476623535156 L200.56716918945312,128.79949951171875 L202.09628295898438,128.2213897705078 L203.68328857421875,127.52684783935547 L205.20162963867188,126.7223892211914 L206.53677368164062,125.85090637207031 L207.58013916015625,124.97047424316406 L208.23953247070312,124.1298599243164 L208.46072387695312,123.38874816894531 L208.20556640625,122.81097412109375 L207.46066284179688,122.45782470703125 L206.27285766601562,122.41158294677734 L204.725830078125,122.70863342285156 L202.96939086914062,123.33412170410156 L201.20236206054688,124.24898529052734 L199.60357666015625,125.37535095214844 L198.34375,126.63323211669922 L197.56912231445312,127.94799041748047 L197.38211059570312,129.21641540527344 L197.83935546875,130.3342742919922 L198.97671508789062,131.22650146484375 L200.72799682617188,131.8383331298828 L202.99276733398438,132.1686553955078 L205.60073852539062,132.25851440429688 L208.37823486328125,132.136962890625 L211.07421875,131.85340881347656 L213.47799682617188,131.47035217285156 L215.20745849609375,131.1185760498047 L216.17840576171875,130.8790283203125 M215.95791625976562,130.44219970703125 L216.18588256835938,130.3412322998047 L216.65853881835938,130.1031036376953 L217.3961181640625,129.6927032470703 L218.32144165039062,129.11141967773438 L219.34469604492188,128.3890380859375 L220.3607177734375,127.55148315429688 L221.284912109375,126.64449310302734 L222.00582885742188,125.70826721191406 L222.414794921875,124.7979507446289 L222.4158935546875,123.98355865478516 L221.94854736328125,123.35138702392578 L221.0152587890625,122.98348236083984 L219.67733764648438,122.96859741210938 L218.05136108398438,123.34358215332031 L216.32424926757812,124.10414123535156 L214.7449951171875,125.2020263671875 L213.57339477539062,126.5401840209961 L213.0596923828125,128.0043487548828 L213.37200927734375,129.46852111816406 L214.57760620117188,130.79043579101562 L216.64401245117188,131.86312866210938 L219.4140625,132.6261749267578 L222.644775390625,133.07498168945312 L226.09646606445312,133.24423217773438 L229.46115112304688,133.19271850585938 L232.45928955078125,132.97019958496094 L234.63555908203125,132.71438598632812 L235.86117553710938,132.51571655273438 M258.4651184082031,127.21334838867188 L258.6113586425781,126.83294677734375 L258.7509765625,126.21220397949219 L258.7736511230469,125.41839599609375 L258.5539245605469,124.61627960205078 L258.05108642578125,123.87902069091797 L257.2393493652344,123.28419494628906 L256.1131591796875,122.88542938232422 L254.66232299804688,122.76966857910156 L252.94601440429688,122.99327850341797 L251.08218383789062,123.59262084960938 L249.25518798828125,124.55986022949219 L247.68243408203125,125.8271713256836 L246.5609130859375,127.26747131347656 L246.027099609375,128.72146606445312 L246.14157104492188,130.01605224609375 L246.86489868164062,131.00108337402344 L248.10568237304688,131.57701110839844 L249.73928833007812,131.69532775878906 L251.61550903320312,131.36740112304688 L253.56918334960938,130.64266967773438 L255.43972778320312,129.60328674316406 L257.0812683105469,128.34671020507812 L258.4007568359375,126.99725341796875 L259.3624572753906,125.70553588867188 L259.974853515625,124.60687255859375 L260.2753601074219,123.79588317871094 L260.33489990234375,123.3438720703125 L260.2337646484375,123.27471923828125 L260.06341552734375,123.60231018066406 L259.9005126953125,124.33566284179688 L259.7987976074219,125.40866088867188 L259.79046630859375,126.6940689086914 L259.91571044921875,128.0501708984375 L260.2113037109375,129.31190490722656 L260.7024230957031,130.35389709472656 L261.4000244140625,131.0684051513672 L262.2426452636719,131.3932342529297 L263.1285705566406,131.34405517578125 L263.8431091308594,131.11569213867188 L264.2814636230469,130.88031005859375 M266.6920471191406,123.86841583251953 L266.67047119140625,124.20352935791016 L266.6342468261719,124.85974884033203 L266.58837890625,125.82738494873047 L266.5324401855469,126.97509002685547 L266.4801025390625,128.17269897460938 L266.4320373535156,129.29006958007812 L266.3710632324219,130.2020721435547 L266.30853271484375,130.81504821777344 L266.252197265625,131.04286193847656 L266.2080383300781,130.840576171875 L266.2376403808594,130.20350646972656 L266.3974914550781,129.19053649902344 L266.7305908203125,127.90384674072266 L267.2685546875,126.47139739990234 L268.016357421875,125.02548217773438 L268.9388732910156,123.68888092041016 L270.0248107910156,122.56141662597656 L271.2366943359375,121.73375701904297 L272.53179931640625,121.26819610595703 L273.847900390625,121.1895523071289 L275.1269836425781,121.49239349365234 L276.29058837890625,122.13916778564453 L277.27044677734375,123.06564331054688 L277.99664306640625,124.20423889160156 L278.43798828125,125.45854949951172 L278.6173400878906,126.73660278320312 L278.60723876953125,127.93183135986328 L278.5747985839844,128.9496307373047 L278.660400390625,129.7123565673828 L278.9544982910156,130.20510864257812 L279.32635498046875,130.45428466796875 L279.6424560546875,130.54403686523438 M291.896728515625,128.02627563476562 L291.99005126953125,127.62562561035156 L292.0188903808594,126.95596313476562 L291.8591613769531,126.09148406982422 L291.3931884765625,125.2152099609375 L290.6014709472656,124.42793273925781 L289.51226806640625,123.82080841064453 L288.20068359375,123.46653747558594 L286.747802734375,123.44642639160156 L285.2622375488281,123.79578399658203 L283.880126953125,124.5056381225586 L282.7436218261719,125.51386260986328 L281.9745178222656,126.69497680664062 L281.69110107421875,127.90058898925781 L281.9779357910156,128.97470092773438 L282.8636169433594,129.75912475585938 L284.317138671875,130.12478637695312 L286.2238464355469,129.99850463867188 L288.38909912109375,129.34506225585938 L290.6054992675781,128.18821716308594 L292.69720458984375,126.58072662353516 L294.5484619140625,124.60956573486328 L296.0912170410156,122.38153076171875 L297.2962951660156,120.03876495361328 L298.16204833984375,117.73116302490234 L298.7034912109375,115.63475036621094 L298.9803771972656,113.88182830810547 L299.077880859375,112.58468627929688 L299.0572509765625,111.81668853759766 L298.9669189453125,111.62972259521484 L298.8410949707031,112.05033874511719 L298.697509765625,113.10628509521484 L298.5691833496094,114.74595642089844 L298.49066162109375,116.8610610961914 L298.49041748046875,119.29564666748047 L298.5762634277344,121.87081909179688 L298.7806396484375,124.45418548583984 L299.1152038574219,126.9001235961914 L299.5735778808594,129.0662078857422 L300.0087585449219,130.63975524902344 L300.3224792480469,131.53553771972656 M332.5999450683594,112.55125427246094 L332.4695129394531,112.15556335449219 L332.0442199707031,111.62164306640625 L331.1629333496094,111.12516021728516 L329.73773193359375,110.90569305419922 L327.81640625,111.03093719482422 L325.6082458496094,111.5093994140625 L323.43133544921875,112.26488494873047 L321.62420654296875,113.2283706665039 L320.4779968261719,114.31237030029297 L320.1477966308594,115.43148803710938 L320.6521301269531,116.54364013671875 L321.93402099609375,117.63430786132812 L323.87615966796875,118.70795440673828 L326.3000183105469,119.79424285888672 L328.987060546875,120.92520141601562 L331.6495056152344,122.10081481933594 L333.9790954589844,123.29365539550781 L335.7449951171875,124.45458221435547 L336.7951965332031,125.53999328613281 L337.0834655761719,126.52545928955078 L336.64556884765625,127.40065002441406 L335.5218200683594,128.13885498046875 L333.777587890625,128.7088165283203 L331.56024169921875,129.08644104003906 L329.0722961425781,129.27645874023438 L326.5758972167969,129.3088836669922 L324.3138122558594,129.22152709960938 L322.51141357421875,129.00987243652344 L321.30413818359375,128.68421936035156 L320.7408142089844,128.2554473876953 L320.63482666015625,127.85572052001953 L320.7500305175781,127.57750701904297 M339.7253112792969,121.54042053222656 L339.5556335449219,121.58990478515625 L339.2896423339844,121.80025482177734 L338.9601135253906,122.26280975341797 L338.6430969238281,123.02124786376953 L338.3819885253906,124.04507446289062 L338.2161865234375,125.2618637084961 L338.1673889160156,126.58343505859375 L338.2624816894531,127.85821533203125 L338.4726257324219,128.90133666992188 L338.7543640136719,129.56103515625 L339.0111389160156,129.84852600097656 L339.1820983886719,129.883056640625 M340.5364074707031,115.4831314086914 L340.3568115234375,115.0965347290039 L340.1639709472656,114.617431640625 L340.01690673828125,114.20207214355469 L339.9747314453125,114.00668334960938 M346.3673400878906,122.82454681396484 L346.3569641113281,122.97327423095703 L346.31195068359375,123.32076263427734 L346.2015380859375,123.92925262451172 L346.02239990234375,124.79263305664062 L345.7985534667969,125.86466979980469 L345.5870666503906,127.03303527832031 L345.4134216308594,128.1584930419922 L345.30712890625,129.09486389160156 L345.2705383300781,129.70492553710938 L345.3071594238281,129.88076782226562 L345.4459533691406,129.56785583496094 L345.7394104003906,128.7515869140625 L346.2067565917969,127.51151275634766 L346.8695068359375,125.99256134033203 L347.7185974121094,124.35906219482422 L348.7099914550781,122.77851867675781 L349.8124694824219,121.3934097290039 L350.98248291015625,120.3102798461914 L352.1551513671875,119.62646484375 L353.2803039550781,119.40830993652344 L354.28619384765625,119.67402648925781 L355.10491943359375,120.38994598388672 L355.7062072753906,121.48194885253906 L356.07025146484375,122.82926940917969 L356.2058410644531,124.27173614501953 L356.1553955078125,125.63487243652344 L355.9847106933594,126.7634506225586 L355.77520751953125,127.52690887451172 L355.6160888671875,127.85380554199219 L355.5751647949219,127.71904754638672 L355.7065734863281,127.13967895507812 L356.035400390625,126.17723846435547 L356.59918212890625,124.94133758544922 L357.4171447753906,123.56440734863281 L358.4625549316406,122.18817901611328 L359.6761169433594,120.95936584472656 L360.9630126953125,120.0103988647461 L362.2059631347656,119.43143463134766 L363.305908203125,119.26293182373047 L364.213623046875,119.51187133789062 L364.8968811035156,120.13928985595703 L365.3693542480469,121.08519744873047 L365.6573486328125,122.26380157470703 L365.8219299316406,123.57170104980469 L365.91925048828125,124.86123657226562 L366.02410888671875,126.00796508789062 L366.12896728515625,126.82783508300781 L366.21807861328125,127.2807388305664 M371.29766845703125,121.62496948242188 L371.3398742675781,121.8346939086914 L371.3934631347656,122.37265014648438 L371.4197692871094,123.35018920898438 L371.3765563964844,124.78584289550781 L371.2262268066406,126.63135528564453 L370.95758056640625,128.7863006591797 L370.5856628417969,131.09283447265625 L370.1288146972656,133.3753662109375 L369.64862060546875,135.419921875 L369.2185974121094,137.04849243164062 L368.89056396484375,138.14642333984375 L368.6730651855469,138.6456298828125 L368.5445861816406,138.53314208984375 L368.4745788574219,137.84005737304688 L368.500732421875,136.6250762939453 L368.6654968261719,135.00286865234375 L369.0201721191406,133.11167907714844 L369.57745361328125,131.06298828125 L370.3309631347656,128.97816467285156 L371.2514953613281,126.95098876953125 L372.35357666015625,125.07975769042969 L373.6530456542969,123.46001434326172 L375.16278076171875,122.18451690673828 L376.8551940917969,121.31040954589844 L378.6623229980469,120.8915786743164 L380.4320068359375,120.91622924804688 L381.98480224609375,121.33604431152344 L383.1461181640625,122.0684585571289 L383.7734375,123.01918029785156 L383.7894592285156,124.0762710571289 L383.2088928222656,125.15287780761719 L382.0984191894531,126.14044189453125 L380.59051513671875,126.94844055175781 L378.8726501464844,127.52376556396484 L377.15570068359375,127.85751342773438 L375.70098876953125,127.91881561279297 L374.7178955078125,127.72827911376953 L374.2920837402344,127.31509399414062 L374.26434326171875,126.867919921875 L374.40972900390625,126.52835083007812 M387.7090759277344,112.02437591552734 L387.64288330078125,112.17483520507812 L387.5257568359375,112.60613250732422 L387.3537292480469,113.4325180053711 L387.1497497558594,114.67778015136719 L386.9374694824219,116.28546905517578 L386.73382568359375,118.12736511230469 L386.57550048828125,120.06742858886719 L386.5403747558594,121.98745727539062 L386.6616516113281,123.75592041015625 L386.9484558105469,125.2601089477539 L387.27239990234375,126.31673431396484 L387.51885986328125,126.89634704589844 M390.8745422363281,125.43565368652344 L391.2632141113281,125.28285217285156 L392.0282287597656,124.96294403076172 L393.1799621582031,124.45339965820312 L394.57733154296875,123.77887725830078 L396.0653381347656,122.98367309570312 L397.4722900390625,122.12430572509766 L398.6566467285156,121.2696304321289 L399.4651184082031,120.48334503173828 L399.7920227050781,119.82795715332031 L399.5669860839844,119.36853790283203 L398.7637023925781,119.17362213134766 L397.42083740234375,119.3062744140625 L395.7080993652344,119.79289245605469 L393.86328125,120.61328125 L392.20050048828125,121.69966888427734 L391.03045654296875,122.96173858642578 L390.6031188964844,124.29116821289062 L391.05963134765625,125.58101654052734 L392.443359375,126.72183990478516 L394.7550354003906,127.6357650756836 L397.7857360839844,128.28125 L401.16357421875,128.66407775878906 L403.9920654296875,128.84228515625 L405.7845153808594,128.89476013183594 " fill="none" stroke="rgb(80,94,161)" stroke-linecap="round" stroke-width="1" /><path d="M0,0 M59.42555236816406,168.48348999023438 L59.40784454345703,168.24900817871094 L59.455223083496094,167.9566192626953 L59.59111785888672,167.72525024414062 L59.77490234375,167.70570373535156 L59.89869689941406,167.960693359375 L59.875247955322266,168.52813720703125 L59.70048522949219,169.44366455078125 L59.398704528808594,170.7362060546875 L59.01469421386719,172.40155029296875 L58.5760498046875,174.39198303222656 L58.10913848876953,176.64968872070312 L57.65700149536133,179.08599853515625 L57.30332946777344,181.615478515625 L57.12071990966797,184.11117553710938 L57.181480407714844,186.4350128173828 L57.54815673828125,188.44093322753906 L58.2499885559082,190.0112762451172 L59.30162048339844,191.05642700195312 L60.68635940551758,191.5525360107422 L62.32590103149414,191.50128173828125 L64.09809875488281,190.9439239501953 L65.86547088623047,189.95367431640625 L67.49049377441406,188.6420440673828 L68.84727478027344,187.12945556640625 L69.87126159667969,185.58929443359375 L70.55293273925781,184.1890869140625 L70.92330932617188,183.05567932128906 L71.06816101074219,182.28530883789062 L71.07806396484375,181.94412231445312 L71.006103515625,182.06524658203125 L70.89801025390625,182.694091796875 L70.801025390625,183.8230743408203 L70.75715637207031,185.3384552001953 L70.86631774902344,187.0637664794922 L71.23353576660156,188.7821044921875 L71.97248840332031,190.26580810546875 L73.15556335449219,191.34230041503906 L74.79360961914062,191.89651489257812 L76.82044982910156,191.85546875 L79.13865661621094,191.2158966064453 L81.59329223632812,190.01214599609375 L84.03919219970703,188.2730712890625 L86.34701538085938,186.05372619628906 L88.40945434570312,183.4311065673828 L90.14019775390625,180.4969940185547 L91.50146484375,177.3953094482422 L92.47727966308594,174.30447387695312 L93.08560180664062,171.41012573242188 L93.39045715332031,168.9156494140625 L93.47318267822266,166.977783203125 L93.41101837158203,165.64968872070312 L93.27629852294922,165.0 L93.12958526611328,165.00479125976562 L92.99986267089844,165.56802368164062 L92.912109375,166.30422973632812 L92.86812591552734,166.90966796875 M92.61363220214844,186.4402313232422 L92.78321838378906,186.4757537841797 L93.23517608642578,186.4754638671875 L94.07711791992188,186.37855529785156 L95.36676025390625,186.11949157714844 L97.08160400390625,185.67872619628906 L99.1412124633789,185.04150390625 L101.40017700195312,184.22698974609375 L103.64593505859375,183.26649475097656 L105.61014556884766,182.21859741210938 L107.07732391357422,181.1548309326172 L107.88189697265625,180.1689453125 L107.92388153076172,179.3303680419922 L107.1975326538086,178.7293701171875 L105.78372192382812,178.4655303955078 L103.79814147949219,178.6092071533203 L101.44746398925781,179.1871337890625 L98.99584197998047,180.17572021484375 L96.67890167236328,181.4831085205078 L94.7373046875,183.0159454345703 L93.36724853515625,184.66995239257812 L92.67347717285156,186.34320068359375 L92.7005386352539,187.93862915039062 L93.46133422851562,189.3515167236328 L94.89997100830078,190.47592163085938 L96.93423461914062,191.2489776611328 L99.42557525634766,191.6358642578125 L102.18370056152344,191.67684936523438 L105.02104949951172,191.38772583007812 L107.72541046142578,190.80987548828125 L110.11984252929688,190.00172424316406 L111.8555679321289,189.2371063232422 L112.84402465820312,188.6931915283203 M118.50993347167969,167.5336456298828 L118.61319732666016,167.36595153808594 L118.71977996826172,167.30955505371094 L118.76642608642578,167.56747436523438 L118.70478057861328,168.3334197998047 L118.55159759521484,169.61114501953125 L118.3310775756836,171.32664489746094 L118.09607696533203,173.38534545898438 L117.85037994384766,175.7049560546875 L117.59101104736328,178.19082641601562 L117.33782958984375,180.72930908203125 L117.10000610351562,183.18994140625 L116.9000473022461,185.44357299804688 L116.7792739868164,187.3645477294922 L116.74710083007812,188.8577880859375 L116.76785278320312,189.82362365722656 L116.8084716796875,190.30523681640625 M132.0401611328125,180.8947296142578 L132.01499938964844,180.5880126953125 L131.86642456054688,180.15249633789062 L131.4881591796875,179.7121124267578 L130.79022216796875,179.45211791992188 L129.74066162109375,179.44911193847656 L128.39552307128906,179.74229431152344 L126.86212921142578,180.32737731933594 L125.30228424072266,181.1866455078125 L123.87736511230469,182.27719116210938 L122.72850036621094,183.53440856933594 L121.96922302246094,184.89744567871094 L121.71038055419922,186.29306030273438 L122.03651428222656,187.63839721679688 L123.0070571899414,188.82347106933594 L124.59000396728516,189.73753356933594 L126.75442504882812,190.24415588378906 L129.32632446289062,190.29078674316406 L132.05946350097656,189.92576599121094 L134.29701232910156,189.4281005859375 L135.70689392089844,189.0221405029297 M144.87130737304688,182.7056121826172 L144.76028442382812,182.29428100585938 L144.50070190429688,181.67337036132812 L144.03248596191406,180.97427368164062 L143.31268310546875,180.41050720214844 L142.31304931640625,180.05996704101562 L141.0673828125,179.9905242919922 L139.620361328125,180.1947784423828 L138.10757446289062,180.68968200683594 L136.6881103515625,181.4523468017578 L135.51809692382812,182.42698669433594 L134.72703552246094,183.53553771972656 L134.42587280273438,184.7112274169922 L134.64967346191406,185.85028076171875 L135.42745971679688,186.86349487304688 L136.745849609375,187.646240234375 L138.5322265625,188.11134338378906 L140.63186645507812,188.19483947753906 L142.87326049804688,187.89593505859375 L145.031494140625,187.23736572265625 L146.91041564941406,186.29298400878906 L148.36459350585938,185.1494598388672 L149.28155517578125,183.9232177734375 L149.6068572998047,182.73788452148438 L149.39755249023438,181.70895385742188 L148.73226928710938,180.90574645996094 L147.7520751953125,180.3678741455078 L146.62332153320312,180.10812377929688 L145.48895263671875,180.16163635253906 L144.49020385742188,180.51675415039062 L143.7357177734375,181.10501098632812 L143.27029418945312,181.68682861328125 L143.05642700195312,182.0941162109375 M152.75283813476562,178.37979125976562 L152.788330078125,178.3567657470703 L152.85833740234375,178.4393310546875 L152.95770263671875,178.74253845214844 L153.05343627929688,179.35733032226562 L153.109619140625,180.2761993408203 L153.1014862060547,181.4360809326172 L153.0473175048828,182.76377868652344 L152.96737670898438,184.15818786621094 L152.88784790039062,185.52444458007812 L152.81488037109375,186.74826049804688 L152.74908447265625,187.7348175048828 L152.68490600585938,188.394287109375 L152.63848876953125,188.67337036132812 L152.6388397216797,188.5364227294922 L152.71438598632812,187.9841766357422 L152.8975830078125,187.04249572753906 L153.19796752929688,185.80563354492188 L153.6085968017578,184.3758087158203 L154.12332153320312,182.86236572265625 L154.73770141601562,181.36724853515625 L155.447509765625,179.99302673339844 L156.2630615234375,178.8353271484375 L157.15252685546875,177.97848510742188 L158.0752716064453,177.48011779785156 L159.0029754638672,177.369873046875 L159.8930206298828,177.64878845214844 L160.69668579101562,178.29859924316406 L161.375732421875,179.27822875976562 L161.8816680908203,180.4968719482422 L162.1802215576172,181.83653259277344 L162.29452514648438,183.16342163085938 L162.2623291015625,184.35321044921875 L162.12619018554688,185.29122924804688 L161.95733642578125,185.9049072265625 L161.82568359375,186.12355041503906 L161.7892608642578,185.9117431640625 L161.93582153320312,185.2751922607422 L162.3206024169922,184.28211975097656 L162.95826721191406,183.0321807861328 L163.84811401367188,181.66465759277344 L164.93646240234375,180.29917907714844 L166.1400604248047,179.05465698242188 L167.3994903564453,178.04043579101562 L168.64669799804688,177.34576416015625 L169.82188415527344,177.0332489013672 L170.88356018066406,177.13340759277344 L171.79396057128906,177.62738037109375 L172.49742126464844,178.4715576171875 L172.9492645263672,179.60079956054688 L173.13819885253906,180.91761779785156 L173.09542846679688,182.3228302001953 L172.93988037109375,183.70127868652344 L172.83270263671875,184.92015075683594 L172.87777709960938,185.87986755371094 L173.02134704589844,186.49603271484375 L173.18145751953125,186.79351806640625 M176.43838500976562,186.00318908691406 L176.73745727539062,185.962890625 L177.32569885253906,185.82664489746094 L178.23890686035156,185.5508270263672 L179.4182891845703,185.1053009033203 L180.83087158203125,184.50958251953125 L182.38400268554688,183.76414489746094 L183.96664428710938,182.88803100585938 L185.44918823242188,181.90206909179688 L186.69012451171875,180.8611602783203 L187.54615783691406,179.82460021972656 L187.9239044189453,178.89785766601562 L187.76771545410156,178.1584014892578 L187.08316040039062,177.7067413330078 L185.9314727783203,177.61117553710938 L184.4217071533203,177.9351806640625 L182.69491577148438,178.66815185546875 L180.95132446289062,179.76577758789062 L179.4279022216797,181.1243438720703 L178.35910034179688,182.64166259765625 L177.93756103515625,184.1765899658203 L178.30581665039062,185.6183624267578 L179.4987335205078,186.8308563232422 L181.4582977294922,187.73207092285156 L184.1103515625,188.26065063476562 L187.1947784423828,188.43569946289062 L190.36868286132812,188.31378173828125 L192.90457153320312,188.083251953125 L194.45297241210938,187.87460327148438 M211.21780395507812,166.85287475585938 L211.25289916992188,166.7607421875 L211.3002471923828,166.77159118652344 L211.32821655273438,167.0432891845703 L211.3083953857422,167.7312469482422 L211.23548889160156,168.86630249023438 L211.12046813964844,170.40682983398438 L210.985595703125,172.25816345214844 L210.85975646972656,174.34506225585938 L210.74143981933594,176.56971740722656 L210.62612915039062,178.84471130371094 L210.5113525390625,181.08558654785156 L210.37281799316406,183.19631958007812 L210.2017364501953,185.04818725585938 L209.9979705810547,186.56849670410156 L209.81246948242188,187.5986328125 L209.68038940429688,188.14454650878906 M205.95606994628906,179.67965698242188 L205.94241333007812,179.4357452392578 L206.07164001464844,179.11434936523438 L206.48410034179688,178.79251098632812 L207.34495544433594,178.59417724609375 L208.69175720214844,178.51730346679688 L210.50709533691406,178.5287628173828 L212.6577606201172,178.568115234375 L215.04940795898438,178.618896484375 L217.5131378173828,178.6571044921875 L219.9159698486328,178.70364379882812 L221.78933715820312,178.751953125 L222.94277954101562,178.7963104248047 M234.72991943359375,181.812744140625 L234.75942993164062,181.5518035888672 L234.67564392089844,181.0811309814453 L234.36781311035156,180.4305877685547 L233.72801208496094,179.71946716308594 L232.7133331298828,179.0296173095703 L231.34768676757812,178.44046020507812 L229.70272827148438,178.01683044433594 L227.85369873046875,177.8251953125 L225.93463134765625,177.9096221923828 L224.08566284179688,178.3091583251953 L222.42764282226562,179.0055389404297 L221.0888671875,179.9584197998047 L220.19613647460938,181.08938598632812 L219.84365844726562,182.31243896484375 L220.10935974121094,183.51026916503906 L221.02413940429688,184.5752716064453 L222.5349884033203,185.38412475585938 L224.53294372558594,185.86044311523438 L226.84132385253906,185.94520568847656 L229.24188232421875,185.65382385253906 L231.4970245361328,185.02117919921875 L233.4083709716797,184.12557983398438 L234.84535217285156,183.05746459960938 L235.76034545898438,181.91583251953125 L236.19784545898438,180.80282592773438 L236.28292846679688,179.83900451660156 L236.19467163085938,179.1593475341797 L236.07972717285156,178.79225158691406 M259.71490478515625,167.394775390625 L259.6912841796875,166.96702575683594 L259.5765380859375,166.39712524414062 L259.301513671875,165.85678100585938 L258.7982177734375,165.58412170410156 L258.0455322265625,165.6459503173828 L257.0409851074219,166.0643768310547 L255.855712890625,166.8294677734375 L254.59136962890625,167.95106506347656 L253.3848876953125,169.39720153808594 L252.35198974609375,171.12005615234375 L251.6050567626953,173.07568359375 L251.20053100585938,175.19851684570312 L251.18963623046875,177.40728759765625 L251.58200073242188,179.5933074951172 L252.38168334960938,181.62318420410156 L253.55776977539062,183.37454223632812 L255.079833984375,184.7421875 L256.86785888671875,185.66465759277344 L258.8099060058594,186.13136291503906 L260.73870849609375,186.10264587402344 L262.4659423828125,185.60191345214844 L263.83538818359375,184.73226928710938 L264.72027587890625,183.85133361816406 L265.15362548828125,183.21444702148438 M248.7208251953125,175.8389434814453 L248.77516174316406,175.75401306152344 L249.10906982421875,175.62591552734375 L249.8694305419922,175.48207092285156 L251.18321228027344,175.3442840576172 L252.94650268554688,175.20703125 L254.95448303222656,175.0420684814453 L256.656005859375,174.88681030273438 L257.7562255859375,174.7707977294922 M257.50714111328125,168.86557006835938 L257.64892578125,168.86891174316406 L258.0667724609375,168.90382385253906 L258.87652587890625,168.97946166992188 L260.1097412109375,169.0703887939453 L261.69525146484375,169.13815307617188 L263.5484313964844,169.14593505859375 L265.5497741699219,169.0638427734375 L267.55999755859375,168.9110107421875 L269.39801025390625,168.73158264160156 L270.89471435546875,168.56680297851562 L271.8753662109375,168.46011352539062 L272.36395263671875,168.41600036621094 M274.244140625,178.04136657714844 L274.3747863769531,178.35707092285156 L274.5771484375,178.98155212402344 L274.82012939453125,179.92788696289062 L275.0622253417969,181.1186981201172 L275.32391357421875,182.5028533935547 L275.65576171875,184.01490783691406 L276.0906677246094,185.58079528808594 L276.6219482421875,187.09725952148438 L277.2063903808594,188.44329833984375 L277.76153564453125,189.51466369628906 L278.2229309082031,190.24989318847656 L278.59307861328125,190.5938720703125 L278.9048156738281,190.49813842773438 L279.237060546875,189.91470336914062 L279.6688232421875,188.85195922851562 L280.2186279296875,187.3821563720703 L280.86541748046875,185.6464385986328 L281.5589599609375,183.7809295654297 L282.20941162109375,181.9237060546875 L282.76434326171875,180.1656494140625 L283.177001953125,178.62440490722656 L283.436279296875,177.3877716064453 L283.5664367675781,176.5736083984375 L283.6115417480469,176.15577697753906 M285.6608581542969,187.0333709716797 L286.1536560058594,186.88169860839844 L286.99822998046875,186.552490234375 L288.12237548828125,186.0205535888672 L289.3292236328125,185.31922912597656 L290.53460693359375,184.4825897216797 L291.65869140625,183.54641723632812 L292.6229248046875,182.5416717529297 L293.339111328125,181.5175323486328 L293.71221923828125,180.53721618652344 L293.6839599609375,179.69430541992188 L293.23223876953125,179.05784606933594 L292.38812255859375,178.70443725585938 L291.2362060546875,178.70494079589844 L289.90521240234375,179.0961456298828 L288.542236328125,179.87571716308594 L287.33062744140625,181.00450134277344 L286.4112548828125,182.3736114501953 L285.91412353515625,183.85972595214844 L285.930908203125,185.3485870361328 L286.5045166015625,186.6995849609375 L287.623046875,187.7991485595703 L289.24053955078125,188.54283142089844 L291.22027587890625,188.85694885253906 L293.3973388671875,188.71743774414062 L295.57647705078125,188.1630096435547 L297.56927490234375,187.2457275390625 L299.2310791015625,186.0723419189453 L300.48077392578125,184.76487731933594 L301.2913818359375,183.482666015625 L301.7264404296875,182.37255859375 L301.89996337890625,181.56027221679688 L301.9171142578125,181.10572814941406 L301.86016845703125,181.03431701660156 L301.74896240234375,181.3433837890625 L301.57568359375,182.02391052246094 L301.35546875,183.01309204101562 L301.1304931640625,184.2006072998047 L300.9405517578125,185.4138641357422 L300.82366943359375,186.47608947753906 L300.7850341796875,187.2372283935547 L300.81060791015625,187.59869384765625 L300.8895263671875,187.50086975097656 L301.00811767578125,186.93092346191406 L301.15374755859375,185.92042541503906 L301.31219482421875,184.57301330566406 L301.46844482421875,183.02552795410156 L301.60369873046875,181.4254608154297 L301.7271728515625,179.8876953125 L301.87164306640625,178.51092529296875 L302.09381103515625,177.3716583251953 L302.4462890625,176.54336547851562 L302.96710205078125,176.05740356445312 L303.67059326171875,175.9041290283203 L304.56243896484375,176.02320861816406 L305.63873291015625,176.3359375 L306.93035888671875,176.75425720214844 L308.39276123046875,177.198974609375 L309.927734375,177.5867156982422 L311.18572998046875,177.85215759277344 L311.9786376953125,177.9874267578125 M313.84490966796875,176.95773315429688 L313.8177490234375,176.88409423828125 L313.8026123046875,176.79144287109375 L313.82098388671875,176.74798583984375 L313.8848876953125,176.86636352539062 L313.9844970703125,177.2340545654297 L314.10552978515625,177.91131591796875 L314.24322509765625,178.86862182617188 L314.4378662109375,180.02764892578125 L314.735595703125,181.27670288085938 L315.177734375,182.4936065673828 L315.807861328125,183.5584259033203 L316.64752197265625,184.3713836669922 L317.703369140625,184.84600830078125 L318.9735107421875,184.94235229492188 L320.4100341796875,184.6583251953125 L321.935546875,184.0240020751953 L323.4619140625,183.0975799560547 L324.87969970703125,181.9920654296875 L326.07147216796875,180.848876953125 L326.9532470703125,179.80978393554688 L327.46600341796875,178.99391174316406 L327.6016845703125,178.4913787841797 L327.388671875,178.3577117919922 L326.85662841796875,178.6742706298828 L326.00872802734375,179.50425720214844 L324.87945556640625,180.85670471191406 L323.51251220703125,182.6918487548828 L321.97637939453125,184.9392547607422 L320.36090087890625,187.4830322265625 L318.7535400390625,190.21824645996094 L317.22711181640625,193.00628662109375 L315.90460205078125,195.70806884765625 L314.89276123046875,198.15049743652344 L314.26446533203125,200.20359802246094 L313.9803466796875,201.62513732910156 L313.921630859375,202.40072631835938 M349.18963623046875,181.9246368408203 L349.173583984375,181.5391387939453 L349.0545654296875,180.92176818847656 L348.7288818359375,180.17298889160156 L348.1026611328125,179.47035217285156 L347.13922119140625,178.8954315185547 L345.83282470703125,178.49560546875 L344.23309326171875,178.30747985839844 L342.44952392578125,178.37852478027344 L340.60162353515625,178.7518310546875 L338.85748291015625,179.431396484375 L337.38446044921875,180.3962860107422 L336.3046875,181.5679168701172 L335.72283935546875,182.85479736328125 L335.728271484375,184.12940979003906 L336.3389892578125,185.25865173339844 L337.5474853515625,186.11871337890625 L339.247802734375,186.6183319091797 L341.2691650390625,186.70269775390625 L343.40716552734375,186.37562561035156 L345.462158203125,185.6748504638672 L347.25518798828125,184.67063903808594 L348.65380859375,183.4658203125 L349.5723876953125,182.18301391601562 L349.9805908203125,180.94483947753906 L349.9400634765625,179.8593292236328 L349.57696533203125,179.0166473388672 L349.060546875,178.468505859375 L348.55511474609375,178.25228881835938 L348.21014404296875,178.384765625 L348.07623291015625,178.8456268310547 L348.20556640625,179.58872985839844 L348.60260009765625,180.54550170898438 L349.250732421875,181.6102752685547 L350.11285400390625,182.68331909179688 L351.15362548828125,183.6709747314453 L352.29046630859375,184.48046875 L353.4527587890625,185.0433349609375 L354.56158447265625,185.31289672851562 L355.5738525390625,185.26748657226562 L356.45458984375,184.9152374267578 L357.21490478515625,184.2865447998047 L357.8931884765625,183.43038940429688 L358.517578125,182.4136505126953 L359.1163330078125,181.31500244140625 L359.71588134765625,180.2423858642578 L360.287841796875,179.2930908203125 L360.80206298828125,178.542724609375 L361.2425537109375,178.05789184570312 L361.59210205078125,177.8903045654297 L361.8692626953125,178.06871032714844 L362.088134765625,178.6243896484375 L362.26409912109375,179.53627014160156 L362.42193603515625,180.7042999267578 L362.6080322265625,181.99571228027344 L362.8680419921875,183.2526397705078 L363.23809814453125,184.32362365722656 L363.73333740234375,185.10751342773438 L364.3646240234375,185.53955078125 L365.13604736328125,185.55718994140625 L366.0595703125,185.16610717773438 L367.0986328125,184.40383911132812 L368.1690673828125,183.353271484375 L369.197998046875,182.15155029296875 L370.09429931640625,180.9583740234375 L370.7996826171875,179.89926147460938 L371.290283203125,179.1002655029297 L371.553955078125,178.63963317871094 L371.60638427734375,178.5680694580078 L371.5224609375,178.92672729492188 L371.38970947265625,179.7272186279297 L371.31109619140625,180.90313720703125 L371.377685546875,182.32936096191406 L371.695068359375,183.8178253173828 L372.3509521484375,185.17013549804688 L373.42730712890625,186.22975158691406 L374.97015380859375,186.89132690429688 L376.93939208984375,187.08819580078125 L379.20245361328125,186.8169403076172 L381.57476806640625,186.11111450195312 L383.8363037109375,185.03826904296875 L385.79461669921875,183.70462036132812 L387.302978515625,182.21353149414062 L388.275634765625,180.67494201660156 L388.6712646484375,179.21383666992188 L388.467529296875,177.9434356689453 L387.6712646484375,176.96514892578125 L386.3304443359375,176.36851501464844 L384.5386962890625,176.20748901367188 L382.48150634765625,176.50399780273438 L380.39404296875,177.23727416992188 L378.53314208984375,178.3330841064453 L377.1341552734375,179.6922607421875 L376.3896484375,181.19854736328125 L376.42547607421875,182.72996520996094 L377.28118896484375,184.1617431640625 L379.02545166015625,185.38453674316406 L381.55487060546875,186.3135986328125 L384.5955810546875,186.9284210205078 L387.263671875,187.2587890625 L389.0308837890625,187.38868713378906 " fill="none" stroke="rgb(80,94,161)" stroke-linecap="round" stroke-width="1" /></svg>