<svg id="canvas" width="640px" height="512px"><path d="M 110.89,253.69 C 110.61 253.68, 110.46 253.79, 110.11 254.04 C 109.76 254.29, 109.54 254.47, 109.13 254.95 C 108.71 255.44, 108.52 255.79, 108.04 256.48 C 107.56 257.17, 107.29 257.55, 106.72 258.39 C 106.15 259.23, 105.80 259.72, 105.18 260.68 C 104.57 261.64, 104.24 262.16, 103.63 263.20 C 103.03 264.25, 102.68 264.79, 102.14 265.90 C 101.60 267.00, 101.34 267.59, 100.94 268.72 C 100.53 269.84, 100.34 270.41, 100.12 271.51 C 99.90 272.62, 99.84 273.18, 99.85 274.24 C 99.86 275.31, 99.92 275.84, 100.16 276.83 C 100.40 277.82, 100.58 278.31, 101.07 279.19 C 101.56 280.06, 101.89 280.47, 102.61 281.21 C 103.33 281.95, 103.74 282.31, 104.69 282.91 C 105.64 283.51, 106.19 283.79, 107.34 284.22 C 108.48 284.65, 109.14 284.79, 110.43 285.04 C 111.72 285.29, 112.40 285.36, 113.78 285.48 C 115.16 285.60, 115.90 285.62, 117.32 285.64 C 118.73 285.66, 119.47 285.63, 120.86 285.58 C 122.24 285.54, 122.95 285.48, 124.24 285.41 C 125.53 285.34, 126.17 285.31, 127.31 285.22 C 128.45 285.13, 129.00 285.08, 129.95 284.97 C 130.89 284.86, 131.35 284.80, 132.05 284.66 C 132.75 284.53, 133.01 284.46, 133.44 284.30 C 133.86 284.13, 133.97 284.02, 134.18 283.83 C 134.39 283.65, 134.47 283.56, 134.48 283.39 C 134.50 283.22, 134.38 283.06, 134.25 282.97 C 134.12 282.88, 134.05 282.94, 133.83 282.93 C 133.60 282.92, 133.54 282.91, 133.14 282.92 C 132.74 282.93, 132.50 282.93, 131.83 282.98 C 131.15 283.03, 130.69 283.08, 129.77 283.16 C 128.84 283.23, 128.31 283.29, 127.18 283.35 C 126.06 283.41, 125.43 283.42, 124.15 283.47 C 122.88 283.52, 122.16 283.56, 120.80 283.59 C 119.44 283.62, 118.72 283.65, 117.35 283.62 C 115.98 283.59, 115.27 283.57, 113.96 283.45 C 112.65 283.34, 112.00 283.27, 110.81 283.04 C 109.63 282.82, 109.04 282.68, 108.02 282.32 C 107.00 281.96, 106.54 281.74, 105.72 281.25 C 104.90 280.76, 104.55 280.47, 103.94 279.88 C 103.33 279.29, 103.06 278.98, 102.66 278.29 C 102.26 277.59, 102.13 277.21, 101.93 276.40 C 101.74 275.59, 101.68 275.14, 101.68 274.24 C 101.69 273.34, 101.74 272.87, 101.96 271.90 C 102.17 270.93, 102.37 270.42, 102.76 269.40 C 103.16 268.37, 103.41 267.82, 103.93 266.79 C 104.46 265.77, 104.79 265.25, 105.40 264.26 C 106.00 263.27, 106.34 262.77, 106.96 261.85 C 107.58 260.93, 107.93 260.46, 108.52 259.65 C 109.10 258.83, 109.41 258.46, 109.89 257.78 C 110.37 257.09, 110.60 256.77, 110.92 256.22 C 111.24 255.67, 111.38 255.45, 111.50 255.03 C 111.62 254.61, 111.66 254.39, 111.54 254.12 C 111.42 253.85, 111.18 253.71, 110.89 253.69" stroke="#E2943B" stroke-width="1" fill="#E2943B"></path><path d="M 108.11,272.22 C 108.36 272.43, 108.68 272.38, 109.19 272.44 C 109.71 272.51, 109.98 272.55, 110.70 272.54 C 111.42 272.53, 111.93 272.48, 112.80 272.40 C 113.67 272.32, 114.14 272.26, 115.04 272.15 C 115.94 272.05, 116.42 271.97, 117.32 271.86 C 118.22 271.75, 118.69 271.71, 119.54 271.61 C 120.38 271.51, 120.80 271.47, 121.53 271.38 C 122.27 271.29, 122.62 271.27, 123.21 271.17 C 123.80 271.08, 124.07 271.04, 124.48 270.91 C 124.89 270.79, 125.03 270.71, 125.27 270.55 C 125.51 270.38, 125.63 270.27, 125.67 270.07 C 125.71 269.88, 125.61 269.69, 125.47 269.56 C 125.34 269.44, 125.23 269.47, 124.99 269.43 C 124.74 269.38, 124.64 269.34, 124.25 269.34 C 123.85 269.33, 123.60 269.37, 123.02 269.40 C 122.44 269.44, 122.09 269.45, 121.36 269.50 C 120.62 269.55, 120.19 269.58, 119.34 269.65 C 118.49 269.72, 118.00 269.78, 117.10 269.86 C 116.21 269.95, 115.75 270.01, 114.85 270.06 C 113.96 270.12, 113.49 270.07, 112.62 270.13 C 111.76 270.18, 111.24 270.23, 110.51 270.35 C 109.77 270.47, 109.47 270.51, 108.95 270.72 C 108.44 270.93, 108.10 271.09, 107.94 271.39 C 107.77 271.69, 107.86 272.01, 108.11 272.22" stroke="#E2943B" stroke-width="1" fill="#E2943B"></path><path d="M 129.83,265.47 C 129.65 265.68, 129.69 265.85, 129.67 266.24 C 129.64 266.62, 129.63 266.84, 129.70 267.39 C 129.77 267.94, 129.89 268.30, 130.02 268.99 C 130.16 269.68, 130.26 270.06, 130.39 270.84 C 130.51 271.62, 130.54 272.05, 130.66 272.91 C 130.79 273.76, 130.86 274.27, 131.00 275.12 C 131.13 275.97, 131.21 276.39, 131.34 277.15 C 131.46 277.91, 131.48 278.31, 131.61 278.94 C 131.73 279.56, 131.77 279.88, 131.96 280.26 C 132.15 280.64, 132.28 280.75, 132.55 280.82 C 132.82 280.89, 133.06 280.83, 133.30 280.61 C 133.55 280.38, 133.71 280.16, 133.80 279.69 C 133.90 279.22, 133.83 278.89, 133.78 278.25 C 133.73 277.62, 133.61 277.22, 133.55 276.51 C 133.49 275.79, 133.44 275.40, 133.47 274.67 C 133.50 273.94, 133.55 273.58, 133.71 272.86 C 133.87 272.14, 133.98 271.77, 134.27 271.08 C 134.57 270.38, 134.74 270.04, 135.20 269.39 C 135.66 268.75, 135.95 268.43, 136.57 267.87 C 137.19 267.31, 137.53 267.02, 138.29 266.60 C 139.05 266.18, 139.51 266.01, 140.35 265.76 C 141.20 265.51, 141.68 265.42, 142.53 265.35 C 143.37 265.29, 143.80 265.28, 144.58 265.42 C 145.36 265.56, 145.74 265.69, 146.42 266.05 C 147.11 266.40, 147.41 266.65, 147.99 267.20 C 148.57 267.75, 148.85 268.09, 149.32 268.80 C 149.79 269.50, 149.98 269.89, 150.34 270.73 C 150.71 271.57, 150.86 272.08, 151.15 273.00 C 151.43 273.91, 151.55 274.40, 151.77 275.31 C 151.98 276.23, 152.05 276.75, 152.23 277.57 C 152.41 278.39, 152.50 278.83, 152.68 279.43 C 152.86 280.02, 152.94 280.20, 153.13 280.54 C 153.32 280.89, 153.42 281.06, 153.62 281.16 C 153.82 281.26, 154.00 281.20, 154.13 281.03 C 154.26 280.86, 154.23 280.71, 154.28 280.33 C 154.33 279.95, 154.42 279.77, 154.40 279.14 C 154.38 278.52, 154.31 278.05, 154.18 277.20 C 154.04 276.34, 153.94 275.82, 153.72 274.86 C 153.49 273.90, 153.38 273.38, 153.07 272.40 C 152.76 271.41, 152.59 270.85, 152.16 269.92 C 151.73 268.98, 151.49 268.53, 150.91 267.71 C 150.34 266.88, 150.01 266.47, 149.28 265.81 C 148.55 265.15, 148.14 264.85, 147.27 264.40 C 146.40 263.96, 145.90 263.78, 144.93 263.59 C 143.95 263.39, 143.43 263.38, 142.40 263.43 C 141.38 263.48, 140.82 263.56, 139.80 263.85 C 138.79 264.13, 138.23 264.35, 137.32 264.86 C 136.40 265.37, 135.98 265.73, 135.23 266.41 C 134.49 267.09, 134.15 267.48, 133.61 268.26 C 133.06 269.04, 132.85 269.48, 132.49 270.30 C 132.13 271.13, 132.01 271.56, 131.80 272.40 C 131.59 273.24, 131.54 273.68, 131.44 274.51 C 131.34 275.33, 131.36 275.75, 131.31 276.53 C 131.27 277.32, 131.18 277.74, 131.22 278.43 C 131.26 279.11, 131.31 279.49, 131.51 279.96 C 131.72 280.44, 131.94 280.62, 132.26 280.79 C 132.58 280.96, 132.84 280.95, 133.11 280.80 C 133.37 280.65, 133.50 280.45, 133.57 280.03 C 133.65 279.60, 133.53 279.29, 133.47 278.66 C 133.41 278.03, 133.36 277.65, 133.28 276.88 C 133.19 276.12, 133.14 275.68, 133.03 274.83 C 132.92 273.98, 132.84 273.49, 132.73 272.63 C 132.63 271.78, 132.59 271.36, 132.50 270.55 C 132.41 269.74, 132.41 269.31, 132.28 268.57 C 132.16 267.84, 132.06 267.45, 131.87 266.87 C 131.67 266.30, 131.56 266.06, 131.30 265.71 C 131.03 265.37, 130.85 265.20, 130.56 265.15 C 130.27 265.11, 130.01 265.25, 129.83 265.47" stroke="#E2943B" stroke-width="1" fill="#E2943B"></path><path d="M 164.40,267.72 C 164.19 267.89, 164.13 268.04, 164.07 268.43 C 164.00 268.81, 164.00 269.06, 164.09 269.66 C 164.19 270.25, 164.30 270.63, 164.53 271.39 C 164.77 272.16, 164.96 272.60, 165.28 273.47 C 165.60 274.33, 165.78 274.79, 166.13 275.72 C 166.48 276.65, 166.66 277.13, 167.01 278.10 C 167.37 279.07, 167.53 279.57, 167.88 280.56 C 168.24 281.55, 168.45 282.08, 168.80 283.06 C 169.16 284.05, 169.34 284.55, 169.65 285.50 C 169.97 286.44, 170.12 286.91, 170.37 287.78 C 170.63 288.65, 170.76 289.08, 170.94 289.85 C 171.11 290.62, 171.17 290.98, 171.24 291.62 C 171.31 292.25, 171.32 292.52, 171.27 293.03 C 171.23 293.53, 171.17 293.75, 171.01 294.15 C 170.85 294.55, 170.72 294.72, 170.47 295.03 C 170.22 295.33, 170.07 295.45, 169.76 295.66 C 169.46 295.87, 169.31 295.97, 168.94 296.09 C 168.57 296.21, 168.36 296.23, 167.93 296.26 C 167.51 296.28, 167.29 296.29, 166.81 296.21 C 166.33 296.13, 166.09 296.04, 165.53 295.84 C 164.98 295.64, 164.64 295.50, 164.04 295.21 C 163.44 294.93, 163.14 294.79, 162.52 294.41 C 161.91 294.03, 161.56 293.78, 160.97 293.30 C 160.37 292.82, 160.14 292.54, 159.53 292.02 C 158.93 291.50, 158.41 290.86, 157.93 290.71 C 157.46 290.57, 157.12 290.77, 157.15 291.30 C 157.17 291.83, 157.54 292.65, 158.05 293.36 C 158.56 294.08, 159.01 294.32, 159.69 294.88 C 160.37 295.43, 160.75 295.70, 161.45 296.13 C 162.14 296.57, 162.47 296.73, 163.16 297.06 C 163.85 297.39, 164.21 297.56, 164.88 297.77 C 165.56 297.99, 165.88 298.05, 166.52 298.13 C 167.16 298.21, 167.47 298.24, 168.08 298.18 C 168.69 298.13, 169.03 298.06, 169.57 297.84 C 170.12 297.63, 170.36 297.47, 170.82 297.13 C 171.28 296.79, 171.53 296.62, 171.89 296.14 C 172.25 295.67, 172.42 295.35, 172.64 294.76 C 172.85 294.18, 172.88 293.86, 172.96 293.20 C 173.03 292.54, 173.04 292.22, 173.00 291.48 C 172.96 290.73, 172.91 290.32, 172.75 289.47 C 172.59 288.63, 172.45 288.18, 172.20 287.26 C 171.95 286.35, 171.81 285.87, 171.51 284.90 C 171.20 283.93, 171.02 283.40, 170.68 282.40 C 170.33 281.40, 170.11 280.88, 169.76 279.89 C 169.41 278.89, 169.25 278.40, 168.91 277.43 C 168.58 276.46, 168.40 275.96, 168.09 275.03 C 167.78 274.09, 167.62 273.63, 167.36 272.77 C 167.10 271.91, 167.01 271.46, 166.80 270.72 C 166.58 269.97, 166.51 269.58, 166.28 269.04 C 166.05 268.50, 165.90 268.31, 165.66 268.02 C 165.43 267.73, 165.36 267.65, 165.11 267.59 C 164.86 267.53, 164.61 267.56, 164.40 267.72" stroke="#E2943B" stroke-width="1" fill="#E2943B"></path><path d="M 161.68,251.63 C 161.83 251.79, 162.11 251.70, 162.14 251.49 C 162.18 251.28, 162.01 250.72, 161.86 250.57 C 161.71 250.41, 161.43 250.49, 161.40 250.71 C 161.36 250.92, 161.53 251.48, 161.68 251.63" stroke="#E2943B" stroke-width="1" fill="#E2943B"></path><path d="M 189.13,264.84 C 189.19 264.49, 189.06 264.14, 188.77 263.66 C 188.47 263.18, 188.20 262.88, 187.65 262.43 C 187.09 261.98, 186.70 261.72, 185.99 261.41 C 185.28 261.10, 184.87 261.02, 184.11 260.87 C 183.35 260.71, 182.96 260.66, 182.17 260.64 C 181.39 260.62, 180.98 260.62, 180.18 260.75 C 179.39 260.89, 178.98 261.00, 178.20 261.31 C 177.43 261.62, 177.03 261.83, 176.31 262.32 C 175.59 262.81, 175.23 263.11, 174.62 263.78 C 174.02 264.45, 173.71 264.85, 173.27 265.67 C 172.83 266.49, 172.63 266.97, 172.44 267.89 C 172.25 268.82, 172.21 269.36, 172.32 270.31 C 172.42 271.27, 172.56 271.77, 172.97 272.67 C 173.38 273.57, 173.67 274.01, 174.36 274.80 C 175.04 275.58, 175.48 275.99, 176.39 276.60 C 177.31 277.20, 177.87 277.44, 178.94 277.82 C 180.02 278.20, 180.61 278.33, 181.76 278.49 C 182.90 278.65, 183.51 278.69, 184.67 278.61 C 185.82 278.54, 186.45 278.40, 187.53 278.10 C 188.61 277.81, 189.15 277.63, 190.07 277.15 C 190.99 276.67, 191.42 276.34, 192.12 275.69 C 192.83 275.04, 193.13 274.67, 193.59 273.89 C 194.05 273.11, 194.24 272.66, 194.41 271.78 C 194.58 270.90, 194.59 270.37, 194.44 269.49 C 194.30 268.60, 194.09 268.15, 193.68 267.35 C 193.27 266.55, 192.98 266.16, 192.39 265.49 C 191.79 264.82, 191.40 264.50, 190.71 264.00 C 190.01 263.50, 189.60 263.29, 188.92 262.98 C 188.24 262.68, 187.85 262.59, 187.32 262.46 C 186.79 262.34, 186.59 262.33, 186.26 262.34 C 185.93 262.35, 185.81 262.43, 185.64 262.52 C 185.48 262.60, 185.47 262.64, 185.41 262.75 C 185.36 262.86, 185.36 262.95, 185.37 263.07 C 185.39 263.18, 185.39 263.22, 185.50 263.35 C 185.61 263.48, 185.67 263.56, 185.92 263.71 C 186.17 263.87, 186.31 263.91, 186.74 264.12 C 187.17 264.33, 187.49 264.45, 188.05 264.75 C 188.61 265.05, 188.97 265.21, 189.54 265.62 C 190.12 266.03, 190.44 266.29, 190.92 266.81 C 191.41 267.34, 191.65 267.66, 191.98 268.26 C 192.32 268.86, 192.47 269.18, 192.60 269.82 C 192.72 270.45, 192.72 270.82, 192.61 271.45 C 192.50 272.09, 192.40 272.41, 192.06 272.99 C 191.72 273.57, 191.48 273.86, 190.91 274.35 C 190.35 274.85, 190.00 275.11, 189.23 275.48 C 188.45 275.85, 187.97 275.98, 187.03 276.21 C 186.10 276.45, 185.54 276.58, 184.54 276.64 C 183.54 276.71, 183.02 276.68, 182.04 276.54 C 181.05 276.39, 180.52 276.25, 179.61 275.93 C 178.70 275.61, 178.24 275.41, 177.48 274.92 C 176.72 274.44, 176.37 274.11, 175.82 273.50 C 175.26 272.89, 175.01 272.55, 174.69 271.87 C 174.37 271.19, 174.28 270.83, 174.21 270.11 C 174.13 269.40, 174.17 269.00, 174.33 268.30 C 174.49 267.60, 174.64 267.24, 174.99 266.60 C 175.35 265.96, 175.60 265.64, 176.08 265.11 C 176.57 264.58, 176.86 264.33, 177.43 263.93 C 178.00 263.53, 178.32 263.36, 178.94 263.11 C 179.55 262.85, 179.87 262.77, 180.50 262.66 C 181.14 262.56, 181.47 262.56, 182.11 262.58 C 182.75 262.61, 183.09 262.64, 183.68 262.79 C 184.27 262.93, 184.54 263.04, 185.06 263.32 C 185.59 263.61, 185.83 263.87, 186.31 264.20 C 186.79 264.53, 187.03 264.74, 187.47 264.98 C 187.90 265.22, 188.16 265.42, 188.50 265.39 C 188.83 265.37, 189.08 265.18, 189.13 264.84" stroke="#E2943B" stroke-width="1" fill="#E2943B"></path><path d="M 201.25,263.63 C 200.99 263.66, 200.79 263.78, 200.61 264.09 C 200.43 264.40, 200.36 264.67, 200.36 265.19 C 200.37 265.70, 200.41 266.03, 200.63 266.67 C 200.85 267.31, 201.06 267.70, 201.46 268.40 C 201.85 269.10, 202.08 269.46, 202.61 270.16 C 203.14 270.86, 203.45 271.24, 204.10 271.90 C 204.75 272.56, 205.13 272.89, 205.88 273.46 C 206.64 274.03, 207.06 274.30, 207.88 274.73 C 208.71 275.16, 209.14 275.35, 210.01 275.61 C 210.87 275.87, 211.35 275.95, 212.21 276.02 C 213.07 276.09, 213.49 276.05, 214.30 275.95 C 215.11 275.84, 215.50 275.77, 216.24 275.50 C 216.98 275.22, 217.38 275.03, 218.00 274.58 C 218.62 274.13, 218.87 273.83, 219.34 273.26 C 219.81 272.70, 220.01 272.40, 220.36 271.75 C 220.71 271.11, 220.89 270.70, 221.08 270.02 C 221.26 269.35, 221.24 268.94, 221.28 268.37 C 221.31 267.80, 221.36 267.55, 221.26 267.17 C 221.16 266.78, 221.04 266.55, 220.78 266.44 C 220.51 266.32, 220.17 266.33, 219.93 266.59 C 219.70 266.85, 219.58 267.15, 219.59 267.75 C 219.61 268.36, 219.76 268.77, 220.00 269.61 C 220.25 270.46, 220.45 270.94, 220.80 271.99 C 221.16 273.03, 221.36 273.65, 221.77 274.85 C 222.18 276.04, 222.43 276.68, 222.87 277.95 C 223.31 279.23, 223.55 279.90, 223.97 281.23 C 224.40 282.57, 224.63 283.27, 225.00 284.63 C 225.36 285.99, 225.54 286.69, 225.81 288.02 C 226.08 289.36, 226.18 290.04, 226.33 291.31 C 226.47 292.59, 226.54 293.24, 226.52 294.39 C 226.51 295.54, 226.47 296.10, 226.27 297.06 C 226.07 298.03, 225.89 298.45, 225.51 299.19 C 225.12 299.93, 224.92 300.25, 224.35 300.75 C 223.77 301.25, 223.43 301.42, 222.64 301.69 C 221.85 301.96, 221.40 302.04, 220.40 302.11 C 219.40 302.18, 218.82 302.17, 217.66 302.05 C 216.49 301.93, 215.82 301.81, 214.58 301.51 C 213.33 301.20, 212.68 301.00, 211.43 300.53 C 210.19 300.06, 209.52 299.77, 208.36 299.16 C 207.20 298.55, 206.61 298.20, 205.62 297.48 C 204.63 296.77, 204.14 296.37, 203.43 295.60 C 202.71 294.82, 202.49 294.36, 202.05 293.60 C 201.60 292.85, 201.50 292.42, 201.20 291.81 C 200.91 291.20, 200.83 290.80, 200.58 290.57 C 200.32 290.35, 200.09 290.36, 199.93 290.69 C 199.77 291.02, 199.68 291.47, 199.79 292.22 C 199.89 292.98, 199.99 293.54, 200.44 294.46 C 200.89 295.39, 201.23 295.93, 202.04 296.84 C 202.84 297.76, 203.39 298.23, 204.47 299.04 C 205.54 299.86, 206.18 300.24, 207.43 300.91 C 208.67 301.59, 209.38 301.90, 210.71 302.42 C 212.04 302.94, 212.73 303.17, 214.08 303.51 C 215.43 303.85, 216.16 304.00, 217.46 304.11 C 218.76 304.23, 219.43 304.22, 220.59 304.08 C 221.76 303.94, 222.32 303.82, 223.30 303.41 C 224.28 303.00, 224.75 302.71, 225.50 302.03 C 226.24 301.36, 226.52 300.93, 227.03 300.01 C 227.54 299.10, 227.76 298.59, 228.04 297.47 C 228.31 296.36, 228.37 295.70, 228.41 294.43 C 228.45 293.16, 228.37 292.46, 228.24 291.11 C 228.10 289.76, 227.99 289.05, 227.73 287.65 C 227.47 286.25, 227.29 285.52, 226.93 284.12 C 226.56 282.71, 226.32 281.99, 225.90 280.63 C 225.49 279.26, 225.25 278.59, 224.83 277.30 C 224.42 276.01, 224.19 275.37, 223.82 274.17 C 223.45 272.98, 223.26 272.37, 222.98 271.32 C 222.69 270.27, 222.64 269.76, 222.40 268.93 C 222.16 268.10, 222.06 267.70, 221.78 267.18 C 221.50 266.66, 221.35 266.50, 221.01 266.33 C 220.66 266.16, 220.38 266.18, 220.07 266.33 C 219.77 266.48, 219.63 266.70, 219.48 267.07 C 219.34 267.44, 219.43 267.69, 219.36 268.17 C 219.29 268.66, 219.28 268.96, 219.13 269.50 C 218.99 270.04, 218.88 270.35, 218.63 270.87 C 218.39 271.39, 218.24 271.65, 217.90 272.09 C 217.55 272.53, 217.37 272.74, 216.91 273.07 C 216.45 273.41, 216.17 273.55, 215.60 273.75 C 215.03 273.96, 214.72 274.03, 214.07 274.11 C 213.42 274.19, 213.07 274.20, 212.37 274.14 C 211.67 274.07, 211.28 274.01, 210.56 273.79 C 209.85 273.56, 209.49 273.40, 208.80 273.02 C 208.11 272.63, 207.75 272.37, 207.10 271.86 C 206.46 271.36, 206.12 271.06, 205.57 270.48 C 205.01 269.89, 204.75 269.55, 204.33 268.93 C 203.90 268.30, 203.73 267.95, 203.43 267.34 C 203.13 266.74, 203.02 266.40, 202.83 265.90 C 202.65 265.40, 202.65 265.17, 202.52 264.84 C 202.39 264.52, 202.31 264.45, 202.19 264.27 C 202.07 264.09, 202.10 264.07, 201.91 263.95 C 201.73 263.82, 201.51 263.61, 201.25 263.63" stroke="#E2943B" stroke-width="1" fill="#E2943B"></path><path d="M 262.92,250.30 C 262.71 250.52, 262.67 250.76, 262.61 251.25 C 262.54 251.74, 262.55 252.02, 262.58 252.75 C 262.62 253.47, 262.69 253.95, 262.79 254.87 C 262.89 255.80, 262.98 256.31, 263.08 257.37 C 263.18 258.44, 263.21 259.02, 263.28 260.21 C 263.35 261.40, 263.37 262.05, 263.44 263.33 C 263.50 264.62, 263.51 265.31, 263.59 266.63 C 263.68 267.95, 263.75 268.65, 263.86 269.95 C 263.97 271.24, 264.02 271.90, 264.14 273.09 C 264.26 274.28, 264.34 274.85, 264.46 275.91 C 264.57 276.97, 264.60 277.50, 264.73 278.40 C 264.86 279.29, 264.95 279.78, 265.12 280.39 C 265.30 281.00, 265.44 281.14, 265.60 281.45 C 265.76 281.76, 265.78 281.84, 265.93 281.93 C 266.08 282.03, 266.20 282.04, 266.34 281.92 C 266.49 281.80, 266.55 281.70, 266.64 281.34 C 266.73 280.98, 266.81 280.78, 266.80 280.14 C 266.79 279.50, 266.68 279.04, 266.58 278.15 C 266.49 277.27, 266.41 276.76, 266.31 275.71 C 266.20 274.67, 266.15 274.10, 266.05 272.92 C 265.96 271.74, 265.93 271.08, 265.84 269.79 C 265.75 268.51, 265.69 267.82, 265.61 266.51 C 265.54 265.20, 265.54 264.52, 265.48 263.24 C 265.43 261.96, 265.41 261.31, 265.35 260.10 C 265.30 258.90, 265.28 258.31, 265.22 257.22 C 265.16 256.13, 265.15 255.60, 265.07 254.65 C 264.98 253.69, 264.95 253.19, 264.79 252.45 C 264.64 251.72, 264.50 251.43, 264.28 250.98 C 264.06 250.52, 263.97 250.32, 263.70 250.18 C 263.42 250.05, 263.14 250.09, 262.92 250.30" stroke="#E2943B" stroke-width="1" fill="#E2943B"></path><path d="M 254.86,267.90 C 255.11 268.12, 255.37 268.16, 255.96 268.23 C 256.55 268.30, 256.94 268.32, 257.82 268.27 C 258.69 268.23, 259.28 268.15, 260.35 268.02 C 261.42 267.88, 262.02 267.76, 263.17 267.60 C 264.32 267.45, 264.96 267.37, 266.12 267.23 C 267.28 267.08, 267.86 267.02, 268.96 266.86 C 270.05 266.70, 270.61 266.63, 271.59 266.44 C 272.57 266.25, 273.09 266.16, 273.85 265.89 C 274.61 265.62, 275.12 265.39, 275.40 265.09 C 275.67 264.78, 275.61 264.53, 275.23 264.38 C 274.86 264.22, 274.33 264.27, 273.54 264.30 C 272.75 264.33, 272.25 264.42, 271.28 264.54 C 270.31 264.67, 269.78 264.80, 268.70 264.93 C 267.62 265.06, 267.05 265.10, 265.90 265.21 C 264.74 265.31, 264.09 265.36, 262.93 265.46 C 261.77 265.56, 261.16 265.60, 260.09 265.71 C 259.01 265.82, 258.42 265.85, 257.55 266.01 C 256.68 266.17, 256.30 266.29, 255.74 266.52 C 255.18 266.74, 254.93 266.86, 254.76 267.14 C 254.58 267.42, 254.62 267.69, 254.86 267.90" stroke="#E2943B" stroke-width="1" fill="#E2943B"></path><path d="M 275.51,251.59 C 275.32 251.84, 275.31 252.08, 275.30 252.61 C 275.29 253.13, 275.31 253.46, 275.45 254.20 C 275.59 254.95, 275.76 255.40, 275.99 256.33 C 276.22 257.26, 276.34 257.78, 276.59 258.86 C 276.84 259.94, 277.01 260.52, 277.23 261.72 C 277.45 262.91, 277.50 263.55, 277.69 264.83 C 277.87 266.11, 277.96 266.82, 278.14 268.12 C 278.32 269.42, 278.40 270.07, 278.58 271.32 C 278.77 272.56, 278.86 273.19, 279.05 274.33 C 279.24 275.46, 279.35 276.04, 279.54 276.99 C 279.73 277.94, 279.79 278.39, 280.00 279.09 C 280.21 279.78, 280.30 280.10, 280.59 280.47 C 280.89 280.84, 281.10 280.95, 281.48 280.95 C 281.86 280.95, 282.15 280.84, 282.48 280.46 C 282.81 280.08, 282.96 279.75, 283.15 279.07 C 283.33 278.40, 283.28 277.93, 283.40 277.09 C 283.51 276.24, 283.53 275.75, 283.72 274.85 C 283.91 273.95, 284.04 273.47, 284.35 272.58 C 284.67 271.68, 284.88 271.20, 285.29 270.37 C 285.70 269.54, 285.92 269.13, 286.41 268.43 C 286.89 267.73, 287.15 267.40, 287.70 266.89 C 288.25 266.37, 288.57 266.19, 289.17 265.87 C 289.76 265.54, 290.11 265.39, 290.69 265.25 C 291.26 265.10, 291.54 265.08, 292.07 265.15 C 292.59 265.22, 292.84 265.32, 293.31 265.61 C 293.77 265.90, 293.99 266.11, 294.38 266.60 C 294.77 267.09, 294.94 267.37, 295.26 268.05 C 295.58 268.73, 295.73 269.14, 295.99 269.99 C 296.25 270.83, 296.35 271.34, 296.56 272.28 C 296.77 273.22, 296.85 273.73, 297.05 274.68 C 297.25 275.64, 297.34 276.16, 297.56 277.05 C 297.78 277.94, 297.88 278.38, 298.15 279.13 C 298.43 279.89, 298.56 280.29, 298.93 280.83 C 299.30 281.38, 299.63 281.60, 300.02 281.85 C 300.40 282.09, 300.62 282.11, 300.87 282.07 C 301.11 282.03, 301.21 281.87, 301.23 281.64 C 301.26 281.41, 301.15 281.27, 300.99 280.93 C 300.84 280.59, 300.66 280.43, 300.44 279.96 C 300.22 279.48, 300.09 279.23, 299.89 278.56 C 299.70 277.89, 299.63 277.47, 299.46 276.62 C 299.29 275.76, 299.21 275.25, 299.03 274.30 C 298.86 273.34, 298.80 272.82, 298.59 271.83 C 298.38 270.84, 298.29 270.29, 297.97 269.35 C 297.66 268.41, 297.46 267.94, 297.03 267.14 C 296.60 266.35, 296.38 265.98, 295.82 265.36 C 295.26 264.74, 294.93 264.43, 294.23 264.04 C 293.53 263.64, 293.10 263.50, 292.31 263.39 C 291.52 263.28, 291.09 263.31, 290.28 263.48 C 289.48 263.66, 289.06 263.84, 288.30 264.25 C 287.53 264.66, 287.15 264.91, 286.47 265.52 C 285.78 266.13, 285.44 266.52, 284.86 267.31 C 284.27 268.10, 284.01 268.56, 283.53 269.47 C 283.04 270.38, 282.82 270.89, 282.44 271.86 C 282.05 272.83, 281.90 273.35, 281.62 274.31 C 281.33 275.28, 281.18 275.80, 281.01 276.69 C 280.84 277.57, 280.76 278.06, 280.76 278.74 C 280.75 279.41, 280.83 279.72, 280.98 280.08 C 281.12 280.44, 281.32 280.53, 281.49 280.53 C 281.66 280.52, 281.77 280.41, 281.81 280.04 C 281.85 279.68, 281.78 279.40, 281.69 278.72 C 281.61 278.04, 281.52 277.60, 281.37 276.66 C 281.23 275.72, 281.12 275.15, 280.95 274.02 C 280.78 272.90, 280.69 272.28, 280.52 271.04 C 280.36 269.81, 280.29 269.15, 280.13 267.86 C 279.97 266.56, 279.89 265.86, 279.72 264.56 C 279.55 263.26, 279.48 262.59, 279.27 261.36 C 279.07 260.13, 278.91 259.52, 278.69 258.41 C 278.48 257.30, 278.42 256.76, 278.20 255.80 C 277.98 254.85, 277.84 254.37, 277.60 253.64 C 277.35 252.92, 277.23 252.62, 276.97 252.17 C 276.70 251.72, 276.56 251.50, 276.27 251.39 C 275.98 251.27, 275.71 251.35, 275.51 251.59" stroke="#E2943B" stroke-width="1" fill="#E2943B"></path><path d="M 306.85,267.89 C 306.62 268.07, 306.58 268.26, 306.47 268.69 C 306.36 269.11, 306.30 269.40, 306.30 270.02 C 306.30 270.64, 306.37 271.06, 306.47 271.79 C 306.58 272.53, 306.69 272.92, 306.82 273.71 C 306.94 274.49, 306.97 274.91, 307.09 275.71 C 307.21 276.51, 307.28 276.96, 307.42 277.73 C 307.55 278.50, 307.58 278.89, 307.77 279.55 C 307.96 280.21, 308.11 280.57, 308.37 281.02 C 308.63 281.47, 308.81 281.69, 309.07 281.81 C 309.33 281.93, 309.53 281.86, 309.68 281.63 C 309.83 281.39, 309.84 281.12, 309.83 280.62 C 309.83 280.12, 309.76 279.78, 309.67 279.14 C 309.58 278.50, 309.49 278.15, 309.38 277.41 C 309.27 276.67, 309.21 276.23, 309.12 275.44 C 309.03 274.65, 308.99 274.22, 308.91 273.44 C 308.84 272.66, 308.81 272.25, 308.74 271.52 C 308.67 270.80, 308.67 270.43, 308.56 269.83 C 308.46 269.22, 308.41 268.93, 308.22 268.52 C 308.03 268.11, 307.90 267.91, 307.62 267.78 C 307.35 267.66, 307.08 267.71, 306.85 267.89" stroke="#E2943B" stroke-width="1" fill="#E2943B"></path><path d="M 304.81,256.31 C 305.05 256.47, 305.25 256.54, 305.35 256.46 C 305.45 256.38, 305.44 256.18, 305.32 255.91 C 305.20 255.63, 305.00 255.28, 304.75 255.09 C 304.51 254.90, 304.23 254.86, 304.10 254.97 C 303.98 255.08, 303.99 255.37, 304.13 255.64 C 304.27 255.90, 304.57 256.14, 304.81 256.31" stroke="#E2943B" stroke-width="1" fill="#E2943B"></path><path d="M 328.32,264.52 C 328.20 264.21, 327.94 263.99, 327.44 263.73 C 326.93 263.48, 326.55 263.36, 325.79 263.25 C 325.03 263.13, 324.53 263.11, 323.65 263.16 C 322.77 263.22, 322.27 263.33, 321.39 263.52 C 320.52 263.71, 320.06 263.83, 319.28 264.10 C 318.50 264.37, 318.11 264.50, 317.50 264.87 C 316.89 265.25, 316.57 265.45, 316.22 265.96 C 315.87 266.46, 315.74 266.81, 315.75 267.40 C 315.76 267.99, 315.88 268.34, 316.26 268.90 C 316.65 269.46, 316.96 269.71, 317.67 270.20 C 318.39 270.70, 318.84 270.91, 319.83 271.37 C 320.82 271.83, 321.43 272.05, 322.62 272.51 C 323.81 272.96, 324.53 273.16, 325.78 273.63 C 327.03 274.09, 327.68 274.34, 328.87 274.84 C 330.07 275.35, 330.70 275.64, 331.77 276.15 C 332.84 276.65, 333.40 276.90, 334.23 277.38 C 335.06 277.86, 335.39 278.10, 335.91 278.55 C 336.44 279.00, 336.62 279.24, 336.86 279.61 C 337.09 279.99, 337.12 280.14, 337.07 280.43 C 337.03 280.72, 336.95 280.82, 336.62 281.07 C 336.29 281.32, 336.05 281.41, 335.43 281.67 C 334.81 281.93, 334.39 282.10, 333.51 282.35 C 332.63 282.60, 332.12 282.73, 331.03 282.91 C 329.94 283.09, 329.28 283.16, 328.07 283.27 C 326.86 283.37, 326.19 283.42, 324.99 283.42 C 323.78 283.43, 323.15 283.39, 322.05 283.29 C 320.94 283.19, 320.37 283.10, 319.46 282.93 C 318.56 282.76, 318.16 282.65, 317.50 282.44 C 316.85 282.23, 316.61 282.13, 316.17 281.88 C 315.72 281.63, 315.58 281.24, 315.29 281.19 C 314.99 281.13, 314.71 281.24, 314.70 281.60 C 314.69 281.95, 314.82 282.48, 315.26 282.97 C 315.69 283.45, 316.11 283.67, 316.88 284.02 C 317.64 284.38, 318.08 284.49, 319.07 284.74 C 320.07 284.98, 320.66 285.10, 321.84 285.24 C 323.02 285.39, 323.69 285.44, 324.97 285.47 C 326.25 285.50, 326.94 285.47, 328.23 285.39 C 329.51 285.30, 330.20 285.24, 331.38 285.05 C 332.56 284.86, 333.14 284.75, 334.14 284.44 C 335.13 284.13, 335.62 283.94, 336.37 283.50 C 337.12 283.05, 337.44 282.78, 337.87 282.20 C 338.29 281.62, 338.42 281.25, 338.49 280.60 C 338.55 279.95, 338.48 279.59, 338.20 278.94 C 337.91 278.28, 337.67 277.96, 337.07 277.34 C 336.47 276.71, 336.08 276.41, 335.20 275.82 C 334.31 275.23, 333.73 274.96, 332.63 274.40 C 331.53 273.83, 330.90 273.54, 329.69 272.99 C 328.47 272.44, 327.81 272.15, 326.56 271.64 C 325.31 271.13, 324.59 270.89, 323.43 270.42 C 322.27 269.96, 321.69 269.73, 320.76 269.32 C 319.83 268.91, 319.42 268.69, 318.78 268.37 C 318.13 268.04, 317.86 267.91, 317.52 267.70 C 317.18 267.50, 317.09 267.47, 317.06 267.33 C 317.02 267.18, 317.09 267.13, 317.34 266.96 C 317.60 266.79, 317.81 266.68, 318.31 266.49 C 318.82 266.30, 319.17 266.18, 319.86 266.00 C 320.55 265.83, 320.99 265.73, 321.77 265.62 C 322.55 265.50, 323.00 265.46, 323.76 265.43 C 324.53 265.40, 324.94 265.46, 325.60 265.47 C 326.26 265.48, 326.56 265.51, 327.05 265.47 C 327.55 265.44, 327.82 265.49, 328.07 265.30 C 328.33 265.11, 328.45 264.83, 328.32 264.52" stroke="#E2943B" stroke-width="1" fill="#E2943B"></path><path d="M 370.08,264.43 C 369.89 264.64, 369.88 264.81, 369.85 265.26 C 369.82 265.71, 369.81 266.02, 369.94 266.68 C 370.06 267.34, 370.23 267.74, 370.47 268.55 C 370.71 269.37, 370.83 269.82, 371.13 270.76 C 371.44 271.70, 371.63 272.24, 371.99 273.24 C 372.36 274.24, 372.54 274.77, 372.96 275.78 C 373.39 276.78, 373.64 277.30, 374.11 278.27 C 374.58 279.24, 374.81 279.76, 375.32 280.62 C 375.83 281.49, 376.13 281.92, 376.67 282.62 C 377.21 283.32, 377.47 283.62, 378.02 284.12 C 378.56 284.61, 378.83 284.85, 379.40 285.08 C 379.98 285.31, 380.33 285.36, 380.91 285.29 C 381.48 285.21, 381.77 285.08, 382.27 284.72 C 382.78 284.36, 383.00 284.12, 383.42 283.50 C 383.85 282.87, 384.04 282.46, 384.40 281.61 C 384.76 280.75, 384.91 280.23, 385.22 279.22 C 385.54 278.21, 385.65 277.65, 385.97 276.55 C 386.29 275.45, 386.50 274.86, 386.82 273.72 C 387.14 272.58, 387.31 271.96, 387.57 270.85 C 387.82 269.73, 387.90 269.16, 388.08 268.15 C 388.27 267.14, 388.39 266.65, 388.49 265.78 C 388.59 264.91, 388.64 264.44, 388.60 263.80 C 388.57 263.17, 388.44 262.94, 388.32 262.59 C 388.19 262.24, 388.13 262.15, 387.98 262.04 C 387.82 261.93, 387.70 261.94, 387.54 262.04 C 387.39 262.15, 387.34 262.25, 387.21 262.58 C 387.08 262.91, 387.01 263.11, 386.90 263.69 C 386.78 264.28, 386.78 264.69, 386.64 265.51 C 386.50 266.33, 386.41 266.81, 386.21 267.79 C 386.01 268.76, 385.91 269.31, 385.63 270.38 C 385.36 271.45, 385.18 272.03, 384.84 273.14 C 384.51 274.25, 384.29 274.86, 383.95 275.94 C 383.61 277.02, 383.47 277.58, 383.14 278.54 C 382.82 279.51, 382.62 279.99, 382.32 280.78 C 382.02 281.57, 381.87 281.95, 381.64 282.49 C 381.41 283.04, 381.35 283.23, 381.16 283.51 C 380.98 283.78, 380.92 283.84, 380.71 283.88 C 380.49 283.92, 380.37 283.91, 380.08 283.71 C 379.78 283.52, 379.62 283.34, 379.23 282.90 C 378.85 282.47, 378.62 282.17, 378.17 281.52 C 377.72 280.87, 377.46 280.48, 377.00 279.66 C 376.55 278.84, 376.34 278.35, 375.91 277.42 C 375.47 276.49, 375.23 275.98, 374.84 275.01 C 374.45 274.03, 374.28 273.53, 373.96 272.55 C 373.63 271.58, 373.47 271.06, 373.21 270.14 C 372.95 269.21, 372.89 268.75, 372.67 267.93 C 372.46 267.12, 372.35 266.70, 372.12 266.07 C 371.88 265.44, 371.76 265.17, 371.50 264.79 C 371.23 264.42, 371.08 264.27, 370.80 264.19 C 370.51 264.12, 370.27 264.21, 370.08 264.43" stroke="#E2943B" stroke-width="1" fill="#E2943B"></path><path d="M 408.98,268.18 C 409.06 267.83, 408.96 267.45, 408.70 266.95 C 408.45 266.45, 408.22 266.15, 407.71 265.68 C 407.20 265.22, 406.82 264.95, 406.16 264.62 C 405.50 264.29, 405.17 264.22, 404.42 264.04 C 403.68 263.86, 403.28 263.74, 402.43 263.71 C 401.58 263.68, 401.11 263.70, 400.18 263.89 C 399.24 264.07, 398.73 264.22, 397.77 264.63 C 396.82 265.05, 396.30 265.31, 395.40 265.94 C 394.51 266.57, 394.06 266.97, 393.30 267.78 C 392.54 268.59, 392.18 269.03, 391.61 269.98 C 391.03 270.92, 390.75 271.47, 390.43 272.52 C 390.11 273.56, 390.02 274.14, 389.99 275.20 C 389.96 276.25, 390.03 276.79, 390.27 277.78 C 390.52 278.78, 390.70 279.30, 391.23 280.17 C 391.76 281.03, 392.15 281.43, 392.94 282.09 C 393.73 282.74, 394.21 283.03, 395.17 283.43 C 396.12 283.84, 396.66 283.99, 397.72 284.12 C 398.79 284.24, 399.40 284.22, 400.48 284.06 C 401.57 283.91, 402.13 283.76, 403.16 283.35 C 404.18 282.94, 404.70 282.65, 405.62 282.02 C 406.54 281.39, 406.99 281.02, 407.75 280.22 C 408.51 279.42, 408.84 278.96, 409.41 278.04 C 409.97 277.12, 410.21 276.61, 410.58 275.63 C 410.95 274.65, 411.08 274.13, 411.26 273.14 C 411.45 272.16, 411.50 271.63, 411.50 270.71 C 411.50 269.79, 411.47 269.22, 411.25 268.55 C 411.03 267.87, 410.78 267.56, 410.39 267.35 C 410.00 267.15, 409.66 267.20, 409.31 267.53 C 408.95 267.85, 408.73 268.23, 408.61 268.99 C 408.49 269.74, 408.54 270.32, 408.68 271.31 C 408.83 272.30, 409.05 272.88, 409.34 273.94 C 409.63 275.00, 409.79 275.56, 410.14 276.61 C 410.50 277.66, 410.69 278.20, 411.11 279.20 C 411.53 280.21, 411.75 280.74, 412.22 281.63 C 412.70 282.53, 412.94 282.95, 413.48 283.69 C 414.01 284.43, 414.35 284.80, 414.89 285.33 C 415.43 285.86, 415.71 286.06, 416.17 286.33 C 416.64 286.59, 416.88 286.61, 417.21 286.65 C 417.55 286.69, 417.70 286.65, 417.85 286.53 C 418.01 286.41, 418.02 286.23, 417.99 286.05 C 417.96 285.88, 417.85 285.86, 417.69 285.66 C 417.52 285.46, 417.45 285.37, 417.15 285.05 C 416.86 284.73, 416.64 284.56, 416.21 284.07 C 415.79 283.58, 415.47 283.27, 415.01 282.61 C 414.55 281.95, 414.34 281.59, 413.93 280.76 C 413.51 279.93, 413.32 279.42, 412.95 278.47 C 412.58 277.52, 412.37 277.01, 412.09 276.00 C 411.80 275.00, 411.69 274.47, 411.52 273.45 C 411.35 272.44, 411.36 271.85, 411.22 270.93 C 411.09 270.02, 411.03 269.52, 410.84 268.88 C 410.65 268.24, 410.51 267.97, 410.28 267.74 C 410.04 267.50, 409.85 267.49, 409.67 267.70 C 409.48 267.92, 409.39 268.23, 409.36 268.83 C 409.33 269.43, 409.50 269.92, 409.51 270.72 C 409.51 271.52, 409.52 271.96, 409.38 272.81 C 409.23 273.65, 409.11 274.10, 408.79 274.95 C 408.46 275.79, 408.26 276.24, 407.77 277.03 C 407.28 277.82, 407.00 278.21, 406.35 278.88 C 405.71 279.56, 405.31 279.87, 404.52 280.40 C 403.74 280.93, 403.30 281.19, 402.43 281.54 C 401.57 281.88, 401.11 281.99, 400.21 282.12 C 399.31 282.25, 398.80 282.27, 397.94 282.18 C 397.08 282.09, 396.67 281.98, 395.91 281.67 C 395.15 281.36, 394.76 281.11, 394.14 280.62 C 393.52 280.12, 393.21 279.84, 392.80 279.19 C 392.39 278.53, 392.27 278.13, 392.08 277.34 C 391.90 276.56, 391.84 276.11, 391.87 275.26 C 391.91 274.41, 391.98 273.95, 392.26 273.10 C 392.54 272.24, 392.77 271.79, 393.26 271.00 C 393.76 270.21, 394.07 269.83, 394.73 269.15 C 395.39 268.48, 395.79 268.14, 396.56 267.62 C 397.33 267.10, 397.78 266.88, 398.59 266.53 C 399.40 266.18, 399.84 266.06, 400.60 265.89 C 401.36 265.72, 401.72 265.67, 402.39 265.67 C 403.06 265.67, 403.40 265.74, 403.95 265.89 C 404.51 266.04, 404.71 266.12, 405.17 266.41 C 405.63 266.70, 405.85 266.99, 406.27 267.33 C 406.69 267.68, 406.89 267.88, 407.29 268.15 C 407.69 268.42, 407.93 268.67, 408.27 268.68 C 408.60 268.69, 408.89 268.52, 408.98 268.18" stroke="#E2943B" stroke-width="1" fill="#E2943B"></path><path d="M 419.93,266.90 C 419.68 267.04, 419.56 267.25, 419.43 267.69 C 419.29 268.13, 419.23 268.42, 419.25 269.10 C 419.26 269.78, 419.33 270.27, 419.50 271.09 C 419.67 271.92, 419.84 272.35, 420.10 273.22 C 420.36 274.10, 420.48 274.58, 420.79 275.47 C 421.11 276.36, 421.28 276.84, 421.69 277.68 C 422.09 278.53, 422.32 278.94, 422.82 279.68 C 423.32 280.43, 423.59 280.80, 424.20 281.40 C 424.80 281.99, 425.16 282.27, 425.84 282.67 C 426.53 283.06, 426.89 283.21, 427.62 283.38 C 428.35 283.56, 428.74 283.60, 429.50 283.54 C 430.26 283.48, 430.67 283.39, 431.42 283.09 C 432.16 282.79, 432.54 282.58, 433.24 282.04 C 433.94 281.51, 434.31 281.17, 434.92 280.42 C 435.54 279.67, 435.82 279.20, 436.31 278.29 C 436.80 277.38, 437.00 276.86, 437.36 275.88 C 437.73 274.90, 437.90 274.36, 438.16 273.39 C 438.41 272.42, 438.50 271.93, 438.65 271.03 C 438.79 270.12, 438.87 269.65, 438.89 268.86 C 438.90 268.07, 438.90 267.58, 438.71 267.07 C 438.52 266.57, 438.26 266.39, 437.95 266.33 C 437.64 266.27, 437.39 266.38, 437.16 266.77 C 436.93 267.17, 436.81 267.55, 436.80 268.31 C 436.80 269.07, 436.93 269.58, 437.14 270.55 C 437.34 271.53, 437.53 272.11, 437.83 273.16 C 438.13 274.22, 438.29 274.76, 438.65 275.81 C 439.01 276.87, 439.20 277.41, 439.64 278.42 C 440.08 279.44, 440.32 279.99, 440.85 280.90 C 441.38 281.81, 441.67 282.25, 442.28 282.98 C 442.88 283.71, 443.21 284.04, 443.89 284.55 C 444.57 285.05, 444.93 285.26, 445.66 285.51 C 446.40 285.76, 446.86 285.84, 447.55 285.80 C 448.24 285.76, 448.67 285.59, 449.12 285.30 C 449.58 285.02, 449.76 284.68, 449.83 284.37 C 449.90 284.07, 449.72 283.88, 449.47 283.77 C 449.22 283.66, 448.97 283.79, 448.57 283.83 C 448.17 283.86, 447.94 283.95, 447.47 283.96 C 447.00 283.97, 446.71 284.03, 446.21 283.87 C 445.70 283.71, 445.45 283.59, 444.96 283.18 C 444.46 282.77, 444.21 282.47, 443.73 281.83 C 443.24 281.18, 443.00 280.78, 442.55 279.95 C 442.10 279.11, 441.86 278.60, 441.46 277.65 C 441.07 276.70, 440.87 276.20, 440.57 275.20 C 440.27 274.20, 440.17 273.68, 439.98 272.65 C 439.79 271.63, 439.78 271.01, 439.61 270.07 C 439.45 269.13, 439.38 268.64, 439.15 267.95 C 438.93 267.26, 438.79 266.95, 438.49 266.64 C 438.18 266.32, 437.92 266.27, 437.64 266.37 C 437.35 266.48, 437.19 266.68, 437.05 267.16 C 436.92 267.64, 437.00 268.06, 436.95 268.77 C 436.89 269.48, 436.91 269.90, 436.77 270.71 C 436.63 271.53, 436.51 271.97, 436.24 272.85 C 435.98 273.74, 435.80 274.25, 435.44 275.14 C 435.09 276.04, 434.91 276.52, 434.49 277.32 C 434.07 278.12, 433.82 278.51, 433.32 279.14 C 432.83 279.78, 432.54 280.05, 432.01 280.49 C 431.48 280.93, 431.21 281.09, 430.67 281.34 C 430.13 281.59, 429.85 281.66, 429.32 281.73 C 428.79 281.80, 428.54 281.80, 428.03 281.67 C 427.52 281.55, 427.28 281.44, 426.78 281.12 C 426.28 280.80, 426.00 280.58, 425.53 280.08 C 425.05 279.59, 424.82 279.28, 424.41 278.64 C 424.00 277.99, 423.81 277.62, 423.48 276.86 C 423.14 276.10, 422.99 275.66, 422.73 274.82 C 422.47 273.99, 422.37 273.52, 422.18 272.68 C 422.00 271.85, 421.94 271.42, 421.80 270.65 C 421.67 269.88, 421.65 269.43, 421.51 268.83 C 421.36 268.23, 421.26 268.02, 421.10 267.65 C 420.94 267.27, 420.94 267.10, 420.71 266.95 C 420.47 266.80, 420.19 266.75, 419.93 266.90" stroke="#E2943B" stroke-width="1" fill="#E2943B"></path><path d="M 450.85,252.97 C 450.63 253.12, 450.60 253.25, 450.48 253.63 C 450.36 254.00, 450.28 254.22, 450.25 254.85 C 450.22 255.48, 450.28 255.91, 450.33 256.78 C 450.38 257.65, 450.43 258.15, 450.51 259.22 C 450.58 260.28, 450.62 260.91, 450.70 262.12 C 450.77 263.33, 450.80 263.97, 450.89 265.27 C 450.99 266.57, 451.05 267.28, 451.19 268.62 C 451.33 269.96, 451.42 270.66, 451.61 271.97 C 451.81 273.29, 451.91 273.95, 452.17 275.20 C 452.43 276.45, 452.58 277.09, 452.93 278.22 C 453.29 279.35, 453.51 279.92, 453.95 280.86 C 454.40 281.80, 454.60 282.24, 455.15 282.90 C 455.71 283.57, 456.28 284.02, 456.72 284.17 C 457.16 284.33, 457.38 284.09, 457.34 283.66 C 457.30 283.23, 456.84 282.73, 456.50 282.02 C 456.16 281.32, 455.97 281.00, 455.62 280.13 C 455.28 279.25, 455.08 278.73, 454.76 277.66 C 454.45 276.60, 454.30 276.00, 454.06 274.81 C 453.82 273.62, 453.74 272.98, 453.57 271.70 C 453.40 270.42, 453.33 269.73, 453.21 268.42 C 453.08 267.10, 453.03 266.41, 452.95 265.13 C 452.88 263.85, 452.86 263.22, 452.82 262.01 C 452.77 260.80, 452.76 260.18, 452.73 259.10 C 452.70 258.03, 452.70 257.52, 452.64 256.64 C 452.59 255.76, 452.56 255.34, 452.45 254.71 C 452.34 254.09, 452.27 253.88, 452.10 253.52 C 451.93 253.15, 451.84 253.00, 451.59 252.89 C 451.34 252.78, 451.07 252.82, 450.85 252.97" stroke="#E2943B" stroke-width="1" fill="#E2943B"></path><path d="M 466.48,256.56 C 466.23 256.71, 466.16 256.90, 465.99 257.37 C 465.82 257.84, 465.71 258.13, 465.62 258.88 C 465.53 259.64, 465.54 260.15, 465.52 261.13 C 465.50 262.11, 465.52 262.65, 465.52 263.76 C 465.53 264.88, 465.52 265.49, 465.54 266.70 C 465.55 267.91, 465.57 268.56, 465.61 269.82 C 465.66 271.08, 465.69 271.75, 465.77 273.02 C 465.84 274.29, 465.88 274.94, 465.99 276.18 C 466.10 277.42, 466.17 278.04, 466.31 279.21 C 466.45 280.37, 466.50 280.96, 466.69 282.00 C 466.88 283.05, 466.96 283.57, 467.26 284.44 C 467.56 285.30, 467.87 285.99, 468.22 286.33 C 468.57 286.66, 468.87 286.57, 469.00 286.12 C 469.14 285.67, 469.00 284.95, 468.91 284.07 C 468.82 283.19, 468.69 282.72, 468.55 281.71 C 468.42 280.69, 468.34 280.13, 468.22 278.99 C 468.10 277.85, 468.03 277.24, 467.94 276.02 C 467.85 274.81, 467.82 274.17, 467.76 272.91 C 467.70 271.66, 467.67 271.00, 467.64 269.76 C 467.61 268.51, 467.60 267.89, 467.60 266.70 C 467.61 265.51, 467.64 264.91, 467.69 263.81 C 467.73 262.71, 467.80 262.16, 467.84 261.20 C 467.88 260.23, 467.91 259.72, 467.88 258.97 C 467.84 258.22, 467.80 257.92, 467.67 257.45 C 467.54 256.97, 467.47 256.76, 467.24 256.58 C 467.00 256.40, 466.73 256.40, 466.48 256.56" stroke="#E2943B" stroke-width="1" fill="#E2943B"></path><path d="M 460.45,274.06 C 460.78 274.22, 461.11 274.17, 461.88 274.14 C 462.65 274.10, 463.17 274.03, 464.29 273.89 C 465.42 273.75, 466.15 273.58, 467.50 273.42 C 468.85 273.25, 469.61 273.17, 471.05 273.06 C 472.50 272.96, 473.39 272.97, 474.74 272.90 C 476.08 272.84, 476.79 272.80, 477.80 272.74 C 478.81 272.67, 479.18 272.67, 479.79 272.58 C 480.41 272.49, 480.62 272.39, 480.89 272.27 C 481.16 272.15, 481.10 272.09, 481.15 271.98 C 481.21 271.88, 481.21 271.87, 481.16 271.76 C 481.11 271.65, 481.18 271.59, 480.91 271.46 C 480.64 271.32, 480.43 271.21, 479.81 271.10 C 479.19 271.00, 478.82 270.98, 477.80 270.92 C 476.77 270.86, 476.07 270.82, 474.69 270.81 C 473.32 270.80, 472.42 270.81, 470.93 270.87 C 469.44 270.94, 468.65 270.97, 467.24 271.12 C 465.83 271.28, 465.05 271.37, 463.89 271.63 C 462.74 271.90, 462.20 272.10, 461.46 272.44 C 460.73 272.78, 460.43 273.00, 460.23 273.33 C 460.02 273.65, 460.12 273.90, 460.45 274.06" stroke="#E2943B" stroke-width="1" fill="#E2943B"></path></svg>